<svg xmlns="http://www.w3.org/2000/svg" viewBox="0 0 297.26 413.87"><defs><style>.cls-1{fill:#7a6261;}</style></defs><g id="Layer_2" data-name="Layer 2"><g id="Layer_1-2" data-name="Layer 1"><path class="cls-1" d="M43.3,367.19a2.63,2.63,0,0,0-.84.32L40,368a4.1,4.1,0,0,0-.75.69c-.11.46-.16.69-.28,1.15a39.87,39.87,0,0,0-1.18,4.08c-.84,3-1.61,6.4-2.48,9.34a43.36,43.36,0,0,0-1.26,6,3.74,3.74,0,0,0-.12,1.36,3.48,3.48,0,0,1-.48,2c-.1.12-.43.07-.63,0l-.12.49s-.2,0-.24.12a.18.18,0,0,1-.15-.21.84.84,0,0,1-.23-.76c-.55.57-1,1.34-1.82,1.47-.19,0-.19,0-.35-.26,0,.17-.23.12-.23.12-.09.33-.32.44-.6.72-.2,0-.24.11-.44.06-.82,0-1-.25-1-.95l.29-1.15a.92.92,0,0,0,0-.71,6.82,6.82,0,0,1,.31-2c.46-1.81.74-3.66,1.2-5.47a9.19,9.19,0,0,0,.41-2.34l.13-.5c-.43.07-.28.28-.51.4l-.3,1.15c-.28,1.85-.71,3.94-1.06,5.68a18.43,18.43,0,0,0-.55,3.71,2.43,2.43,0,0,1-.58,1.42c-.08.33-.28.28-.67.18a1.61,1.61,0,0,1-.87-1.46l.3-1.14c.41-2.35,1-4.48,1.34-6.66a1.59,1.59,0,0,0,0-.87c0,.16-.24.11-.47.22A24.38,24.38,0,0,1,23,386.54a8.48,8.48,0,0,1-2.38,1.1l-.91.28a2.67,2.67,0,0,0-.91.27l-.2-.06a11.14,11.14,0,0,1-5.6.5A9.82,9.82,0,0,1,7.72,386a6.45,6.45,0,0,1-1.78-3.05,10.93,10.93,0,0,1-.3-3.66A31.18,31.18,0,0,1,7.82,370a72.85,72.85,0,0,1,4.66-10.08c.87-1.49,1.79-3,2.85-4.6s4.73-5.85,6-7.54a26,26,0,0,1,4.17-4.4,16.2,16.2,0,0,1,3.65-2.28,7.79,7.79,0,0,1,5.16-.65,5.06,5.06,0,0,0,.72,0,9.87,9.87,0,0,1,4.09,1.8,2.09,2.09,0,0,1,1,1.13l.43.46c-.08.33-.17.66-.38.78-.09.33-.69.52-1,.43a1.17,1.17,0,0,0-.74,0,2.73,2.73,0,0,1-1.24-.16,5.89,5.89,0,0,0-3,.24c0,.17-.26.28-.48.4a16.45,16.45,0,0,0-3.07,2.31,17.41,17.41,0,0,0-2.23,2.54l-.85,1c-.95,1.32-4.22,5-5.1,6.29a49.05,49.05,0,0,0-4.18,7.42L16,370.41a34.39,34.39,0,0,0-1.58,5.19,18,18,0,0,0-.7,4.39,8.15,8.15,0,0,0,.64,3.38,1.56,1.56,0,0,0,.72,1.1.41.41,0,0,1,.48-.22,21.65,21.65,0,0,0,2.81-1.83,33.6,33.6,0,0,0,7.85-7.66c1.16-1.58,1.73-2.37,2.87-4,.23-.12.27-.28.36-.61-.82.13-1.72.35-2.3.43a11.51,11.51,0,0,1-2.21.09,1.06,1.06,0,0,1,.88-.28,21.87,21.87,0,0,0,4-.84.22.22,0,0,0,.09-.33c-.37-.1-.82.13-1.24.19a4.76,4.76,0,0,1-1.47.3,3.67,3.67,0,0,1-1.47.3,10.58,10.58,0,0,1-1.47.29c.09-.32.27-.27.32-.43a10.83,10.83,0,0,0,2-.68l3.75-.74c.23-.12.41-.07.32-.44-.05.16-.23.11-.41.06a46.55,46.55,0,0,1-4.68,1.19c-.23.11-.41.06-.46.22a1.26,1.26,0,0,1-1.42-.58,1.05,1.05,0,0,0-.65-.53,1,1,0,0,1-.45-1.19c.09-.33.19-.65.05-.87a1.09,1.09,0,0,1,.28-1,5.87,5.87,0,0,1,1.15-1.25,11.31,11.31,0,0,1,2.24-1,55.25,55.25,0,0,1,5.78-1.22c2.09-.29,3.13-.44,5.2-.75a13,13,0,0,1,3.49-.18,1.42,1.42,0,0,1,1,.59c.18,0,.14.21.1.37-.18,0-.22.12-.4.08a15.32,15.32,0,0,1-3.22.61,2.7,2.7,0,0,0-1.16,0c-3.48.66-5.23,1-8.75,1.55-.23.11-.59,0-1,.08l-.73.5c-.23.11-.41.06-.5.38.18.06.41-.06.59,0,2.1-.47,4-.81,6-1.18,1.82-.35,3.83-.58,5.84-1a20.42,20.42,0,0,1,3-.32c.18,0,.4-.08.76,0s.54.13.61.67l-.74.69a2.47,2.47,0,0,0,1.12.09c0,.17,0,.17.15.21.13,1.08.13,1.08-.9,1.36l-1.84.43s-.22.12-.26.29c.59,0,1.07-.24,1.62-.31a3.27,3.27,0,0,1,1.39-.2c.11.38-.08.33-.3.46l-1.65.47a4.17,4.17,0,0,0-1.26.4c-.18,0-.22.12-.44.24l.36.09a7.17,7.17,0,0,0,1.62-.31c.38-.11.85-.32,1.26-.4C43.16,367,43.12,367.15,43.3,367.19ZM23,348.77c.05-.16.23-.11.27-.27a.17.17,0,0,0-.22.11,4.63,4.63,0,0,0-1.32,1.19c-.69,1-3.66,4.38-4.36,5.4a48.7,48.7,0,0,0-4,6.39c-1.05,2.3-1.57,3.45-2.63,5.74a41.5,41.5,0,0,0-2.3,6.56c-.11.33-.4.59-.55,1.07l-.26.81c.29-.26.29-.26.34-.42l-.15,2.44a.58.58,0,0,0,.08.38A4.78,4.78,0,0,0,8,377a29.81,29.81,0,0,1,1.62-5.71L12,365.79c.75-1.72,1.63-3.51,2.41-5.11C16,357.44,20.88,351.86,23,348.77ZM10.34,378.24a69,69,0,0,1,1.32-6.87l-.1.32a12.42,12.42,0,0,0-1.23,4.59c-.13.67-.2,1-.32,1.68a.74.74,0,0,0,.33.28c-.06.16-.3.26-.35.43A.63.63,0,0,0,10.34,378.24Zm2,1.67a49.89,49.89,0,0,1,2.19-10.5l-.35,1.14c-.15.48-.43.75-.58,1.24a38.72,38.72,0,0,0-1.21,4.59c-.1,1.11-.14,1.66-.23,2.77C12.08,379.31,12,379.47,12.31,379.91Zm1.25-1.39a26,26,0,0,1,2.38-9.2c.68-1.56,1.56-3.34,2.26-4.81a57,57,0,0,1,3.07-5.62c.74-1.2,1.49-2.39,2.45-3.7a34.74,34.74,0,0,1,2.82-3.06l.36-.6c-.4.06-.27.27-.36.6a19.86,19.86,0,0,0-2.85,2.52,3.72,3.72,0,0,0-.74,1.2c-1.24,1.57-2.14,3.25-3.21,4.88l-1.23,2.11c-1.05,2.16-2.11,4.32-3,6.53a29,29,0,0,0-2.07,6.81,9.25,9.25,0,0,0-.38,3.26.56.56,0,0,0,0,.54Zm16.92-12.1,0-.16-1.41.15c-.14-.22-.09-.38-.36-.1-.19-.05-.23.11-.41.06-.09.33-.28.28-.46.23a10.47,10.47,0,0,1-2,.69c-.23.11-.42.06-.51.38l.37.11C27.67,367.25,28.61,367,30.48,366.42Zm3.17,22.87c.12-.5,0-1,.17-1.53.52-2.14,1-4.28,1.38-6.47l.28-1.15-.19-.05-1,4.28a20.59,20.59,0,0,1-.66,3.5l-.36,1.49c.19,0,.15.21.11.37A.55.55,0,0,0,33.65,389.29Zm4.91-20.1a3.62,3.62,0,0,0-.51,1.28c-.56,2.3-1.35,4.73-1.92,7l-.2.82a10.4,10.4,0,0,0,.75-2.25,10,10,0,0,1,.75-2.26c.23-.93.34-1.39.57-2.31A5.14,5.14,0,0,0,38.56,369.19Z"/><path class="cls-1" d="M75,370.3c-.48,1.78-.73,2.67-1.22,4.44-.43,1.31-.64,2-1.07,3.27a22.15,22.15,0,0,1-1.31,3.58l-.08.5a1.48,1.48,0,0,0-.56,1.11c-.24.31-.27.48-.48.61-.65.42-.54.95-.62,1.45a.8.8,0,0,1-.35,1,2.86,2.86,0,0,0-.86,1.75l0,.17c-.46.44-.55,1.21-.84,1.58a11.16,11.16,0,0,0-1,1.38c-.22.14-.22.14-.25.31A18.13,18.13,0,0,1,61.54,396a15.69,15.69,0,0,1-5.09,2.36,6.25,6.25,0,0,1-2.66,0,10.43,10.43,0,0,1-8.89-6.47,14.11,14.11,0,0,1-1.27-5.31,30.91,30.91,0,0,1,.67-7.49c.18-1,.29-2.19.52-3.19a51.27,51.27,0,0,1,2.58-9c.94-2.15,1.41-3.23,2.34-5.39a56.69,56.69,0,0,1,3.4-6.2,20.32,20.32,0,0,1,7-6.52,6.66,6.66,0,0,1,2-.82.78.78,0,0,1,.42.6c.2-.14.55-.07.76-.2a1.09,1.09,0,0,1,1.41.09l.35.07a2.53,2.53,0,0,1,1.53.45l1,.18a7.83,7.83,0,0,1,3.68,1.5,10.88,10.88,0,0,1,4.35,6.7,29,29,0,0,1,.34,5A27.48,27.48,0,0,1,75,370.3ZM47.38,374a57.57,57.57,0,0,1,2-6.34,55.17,55.17,0,0,1,4.83-10.24,7.54,7.54,0,0,0,.35-.79c-.39.09-.46.42-.67.55l-1.74,2.93c-1,2-2,4.24-2.92,6.48a65.11,65.11,0,0,0-2.33,7.12,43,43,0,0,0-1,5.67l-.62,2.82a5.35,5.35,0,0,1-.17,1.7c0,.16.11.37.08.54l.25-1.16a13.2,13.2,0,0,0,.09,1.41c0,.48,0,.72-.06,1.2s0,.87.13,1.24c.23-.12.3-.46.34-.62a1.21,1.21,0,0,1-.05-.71,58.88,58.88,0,0,1,.5-6C46.55,377.83,46.94,376,47.38,374ZM48,386.81a1.8,1.8,0,0,0,0-1,58.06,58.06,0,0,1,1.49-11.65l.17-.83-1.1,4.27c-.32,1.5-.57,3.12-.77,4.52s0,2.78-.08,4.14C47.65,386.57,47.8,386.77,48,386.81Zm2.18.11a34.09,34.09,0,0,1,.67-9c.45-2.16.75-4.52,1.38-6.64l.1-.5a2,2,0,0,0-.39,1c-.14.67-.46,1.29-.63,2.12l-.69,3.32c-.35,1.66-.43,3.47-.66,5.06a12.49,12.49,0,0,0,.09,4.35,1.21,1.21,0,0,0,.06.7Zm1,0a35.69,35.69,0,0,1,.15-4.64,51.28,51.28,0,0,1,1.39-8.72,56.77,56.77,0,0,1,2-6c.86-2.22,1.85-4.47,2.82-6.53.25-.29.46-.43.13-.66a1,1,0,0,0-.31.63,51.63,51.63,0,0,0-3,6.48c-.79,2.08-1.43,4.05-2,6.16a38.94,38.94,0,0,0-1.41,7.85,17.16,17.16,0,0,0-.11,3.43,4.92,4.92,0,0,0,.32,2.32Zm17.47-23.66a30,30,0,0,0-.24-4A12.35,12.35,0,0,0,66.59,354c-.12-.36-.44-.59-.73-1a1.21,1.21,0,0,0-1.06-.19.37.37,0,0,1-.41.27,16.55,16.55,0,0,0-2.67,2.6,27.47,27.47,0,0,0-4.19,6.27,52.81,52.81,0,0,0-2.92,7c-.58,1.75-.87,2.63-1.46,4.38a13.64,13.64,0,0,0-.37,1.82c0,1.26-.5,2.93-.7,4.36a35.09,35.09,0,0,0-.54,5.6,15.08,15.08,0,0,0,.87,4.67,8.11,8.11,0,0,0,2.75,3.46c.49.62.69.65,1.4.09a23.59,23.59,0,0,0,5.16-6.47,49.13,49.13,0,0,0,3.7-9c.75-2.41,1.53-5,2.17-7.2A29.61,29.61,0,0,0,68.64,363.29Zm2,1.36a9.55,9.55,0,0,0-.41-3.16c.12.36-.4,7-.46,7.31A10.49,10.49,0,0,0,70.65,364.65Zm1.86,0a5.94,5.94,0,0,0-.09-2.93A16,16,0,0,0,72.51,364.6Zm1.94-4.16a37.25,37.25,0,0,0-.16,4.61A9.44,9.44,0,0,0,74.45,360.44Zm.76-.22a1,1,0,0,0,.08.69c-.1,1.88-.58,4.56-.29,5.62a2.64,2.64,0,0,1,.08.7A15.11,15.11,0,0,0,75.21,360.22Z"/><path class="cls-1" d="M89,360.68l-.06.51,1-1.25c-.67,1.12-1.16,2.26-1.84,3.38a.88.88,0,0,1-.44.63l-.6.44a2.33,2.33,0,0,1-1.81,1.32c-.9.25-2.11.32-3,.47a3.08,3.08,0,0,1-2.15-.46.7.7,0,0,0-.52-.24,1.57,1.57,0,0,1-.95-1.16c0-.34.56-1.18.91-1.24a2.88,2.88,0,0,0,1.82-1.29,32.15,32.15,0,0,0,3.22-6.59c1-2.57,1.93-5.4,3-8l.17-1.35.68-1.28c0-.17.57-.45.74-.43a4.13,4.13,0,0,1,.42.91l-.1.84a.6.6,0,0,0,.13.36.16.16,0,0,1,.15.18c.21-.31.25-.65.44-.8,0-.33-.09-.69.12-1,0-.17.23-.48.4-.46s.32.2.65.41l0,.34c.36-.13.57-.45.91-.41.36-.13.66.24.84.26a5.87,5.87,0,0,1,1,.62,4.63,4.63,0,0,1,0,1.53A52.71,52.71,0,0,1,91.13,356C90.27,357.86,89.85,358.8,89,360.68Zm.38-13.95c-.19.15-.39.3-.41.47a38.31,38.31,0,0,1-2.7,7.69c-.61,1.5-.92,2.25-1.55,3.74a17.6,17.6,0,0,0-1.25,2.74c.75-.24.84-.91,1.28-1.54.73-1.45,1.27-2.92,2-4.37,1-2.61,1.44-3.92,2.38-6.54C89.2,348,89.25,347.61,89.36,346.73Zm1.32,2.2.34,0c.08-.67.33-1.33.38-1.83a.17.17,0,0,0-.15-.19C91,347.6,90.93,348.28,90.68,348.93Zm4.14-2.79a9.44,9.44,0,0,1-.33,1.5c-.74,2.39-1.62,5.46-2.62,8.08l-.41.46c.56-1.81,1.24-3.7,1.81-5.26.41-1.11.53-2.46.89-3.48A3.41,3.41,0,0,1,94.82,346.14Zm-2.75,4.48A6.32,6.32,0,0,0,93.16,347,26.91,26.91,0,0,1,92.07,350.62Z"/><path class="cls-1" d="M115.14,403.31h.2l0,.85a3.51,3.51,0,0,0-.08,2l0,.51c-.79-.37-1.33-.79-1.35-1.41,0-1.27-.29-2.56-.23-3.92l-.35-5.44c.12-2.54.15-5.2.16-7.63a41.32,41.32,0,0,1,.11-6.62,13.36,13.36,0,0,0,.08-1.86l.23-4.91c.36-3.72.84-7.7,1.43-11.48a55,55,0,0,1,1.35-6.56,6.22,6.22,0,0,1,1-1.83,1.74,1.74,0,0,1,.9-.64c.34.35.5.86.14,1.19l-.4,1.34a1.09,1.09,0,0,1-.39.84c.19-.17.19-.33,0-.68l0,.68c0,.17.17.34.16.51a39,39,0,0,0-1,4.2c-.18,1-.37,2.27-.5,3.38-.07.62-.23,1.35-.26,1.85-.17-.17-.16-.34-.15-.68,0,.51-.22.84-.05,1.18a.62.62,0,0,0-.2.5,59.19,59.19,0,0,0-.66,6.76c0,2.29,0,4.92-.12,7.3a2,2,0,0,1-.23,1l0,.67c.11,1.87.06,7.81,0,9.84,0-.34,0-.67.23-.84.15,1.2-.29,2.37-.15,3.73,0-.34,0-.51.21-.5a15.06,15.06,0,0,1-.31,2.87l.42-.66a10.87,10.87,0,0,1-.3,2.53l.42-.49c0,.54,0,.81-.06,1.36a2.73,2.73,0,0,1-.24,1.17Zm.34-31.54c0-.17.19-.17.19-.17,0,1.29-.08,1.94-.14,3.22h-.18Zm25.69,29.73a.58.58,0,0,0,.21.5,2,2,0,0,1-1,.19.61.61,0,0,1-.2.35,1.29,1.29,0,0,1-.37,1.19l-.19.34a1.6,1.6,0,0,1-1.18,1.21,2.21,2.21,0,0,0-1,.18,1.34,1.34,0,0,1-.79.19,4.71,4.71,0,0,1-2.21-.49,27.48,27.48,0,0,1-4.58-3.39,24.1,24.1,0,0,1-2.16-2.22l-.78-.68a40.38,40.38,0,0,1-4.59-5.85,3.36,3.36,0,0,1-.75-1l-.38-.35a.58.58,0,0,0-.21.5c.15,1.87.14,3.75.25,5.44.07.93.25,2.29.31,3.4.06.93.16,1.86.13,2.88,0,.48,0,.71,0,1.19-.39-.18-.39-.35-.38-.69-.16-1.36-.23-2.81-.29-4.25,0-.95-.09-2.26-.11-3.22,0-1.78-.1-3.74-.24-5.61a1.87,1.87,0,0,0-.17-1c-.19,0-.19.17-.2.34,0,1.86.09,3.9,0,5.76.17,2.25.26,3.37.44,5.61,0,1,.14,2,.12,3.06l0,.51v.17c-.2,0-.4,0-.4-.18a10.42,10.42,0,0,0-.33-2.39c-.15-3.33-.22-5-.36-8.32,0-1.35-.11-2.89-.07-4.24a3.18,3.18,0,0,0-.15-1.36.16.16,0,0,0-.19.16c-.2.17-.2.16-.21.33l0,1.36c-.2.16,0,.34,0,.51s.2,0,.19.17c0,.41,0,.61,0,1,0,1.53.2,3.15.25,4.59,0,.95.14,2,.11,3.05s.14,1.87.12,2.72c0,.51.17,1,.15,1.7a.55.55,0,0,1-.18-.51h-.2v.34c.18.68-.24,1.18-1,1.49-.19-.17,0-.5-.18-.68l0-.68c-.5-2.9-.29-6.07-.49-9-.09-1.32-.1-2.89-.24-4.25l.09-2.71a.49.49,0,0,0-.18-.35.17.17,0,0,0-.2.16l-.08,2.37a13.38,13.38,0,0,1-.12,3.39,5.7,5.7,0,0,0,.12,2c0-.47,0-.71,0-1.18.14,1.53.09,3.05.23,4.76l.3,2.89c0,1,.13,2,.1,3.06l0,.51h-.2c-.23.67-.43.66-1.42.46l-.2-.18c0-.34-.17-.69-.16-1l-.25-9a52.44,52.44,0,0,1-.16-5.6c.08-2.2.17-4.41.07-6.62-.1-2.37.19-4.74.3-7.28.11-2.71.42-5.58.7-8.29.13-1.26.14-2.73.35-4.22a42.59,42.59,0,0,1,1.3-6.06,3.47,3.47,0,0,1,.76-1.33,2.35,2.35,0,0,0,.39-1,10.11,10.11,0,0,1,.21-1c.37-.66.55-.83,1.25-.64.17.18.34.35.34.52.17,0,.35,0,.35-.16.18,0,.18,0,.18-.16.7.19,1,.36,1.21.88.18,0,.36-.17.54-.16s.17.34.16.51a8.06,8.06,0,0,1-.19.84A41,41,0,0,0,122,363a42.8,42.8,0,0,1-.86,5.06,20.62,20.62,0,0,1-.25,2.54,90.6,90.6,0,0,0-.5,11l0,.68c.19-.17.39-.33.39-.5l0-.68c.06-2.37.23-4.83.38-7.11.24-3.58.63-7.66,1.21-11.33a44.61,44.61,0,0,1,1-4.39c.18-.33.19-.67.37-1s.19-.5.37-.67c.18,0,0,.17,0,.17v.34c-.38,1.35-.72,2.78-1,4.05-.34,1.68-.61,3.74-.85,5.57a128,128,0,0,0-.91,13.72V381a.38.38,0,0,0,.38-.33,59.26,59.26,0,0,0,6.69-11.76c.93-2.53,1.83-5.45,2.57-8.12.51-1.85,1-3.94,1.41-5.94a11.56,11.56,0,0,1,.7-2.37l.86-1a.51.51,0,0,1,.88.16,2.62,2.62,0,0,1,.18,1.18c0-.17.17-.34.17-.51.17-.17.17-.51.34-.85s.52-.34.87,0a.6.6,0,0,0,.18.51.17.17,0,0,1,.17-.17c.18,0,.18,0,.17-.18.35.17.53.17.71.33a.8.8,0,0,0,.88.5l.36.5a2.83,2.83,0,0,1,.2,1.69c-.49,1.71-.78,3.29-1.14,4.94-.58,2.67-1.35,5.45-2.23,8.17-.35,1-.71,1.87-1.07,3.06.37,0,.37-.34.37-.68a36.06,36.06,0,0,0,2.28-6.64c.6-2.34,1.17-4.77,1.65-7.15.19-1.09.29-1.64.47-2.72a.77.77,0,0,1,.2,1c-.18,1.22-.28,1.84-.46,3.06a83.93,83.93,0,0,1-3.24,11.75c-.89,1.88-1.61,3.75-2.53,5.45-1.1,2-2.22,4.07-3.55,6.1-1.14,1.62-1.71,2.43-2.87,4-.39.51-.39.85-.21,1.19a41.6,41.6,0,0,0,3.61,5.11,49.23,49.23,0,0,0,5.87,6.25l2.78,2a2.55,2.55,0,0,0,1.59.64l.4.33c0,.17.21.34.41.5C141.36,401.15,141,401.33,141.17,401.5Zm-21.09-41.61c.25-1,.37-1.52.61-2.53a.16.16,0,0,0-.17-.17l-.37.5,0,.67c-.19.34-.21.85-.39,1.18-.43,2.19-.81,4.46-1.12,6.58a68.89,68.89,0,0,0-.81,7.26c-.12,3.39-.33,6.7-.54,9.82,0,.83.13,1.71.1,2.55,0,.17,0,.17.18.18.2-.16,0-.34,0-.68,0-.81,0-1.22.07-2,.09-2.54.28-5.17.45-7.45.28-3.74.47-7.8,1.13-11.67A36.93,36.93,0,0,1,120.08,359.89Zm.7,6.8c.23-1.68.56-3.27.85-4.72s.61-2.87,1-4.21c0-.17.19-.51-.16-.69l-.18.17c0,.34-.2.67-.21,1-.39,1.69-.73,3.47-1,5.06a68.27,68.27,0,0,0-1.12,7.43c-.14,1.95-.13,4.07-.37,5.93-.07,2.3-.11,3.45-.18,5.76a1.37,1.37,0,0,0,.16.85c0-.17.2-.16.2-.33l0-.68A150.4,150.4,0,0,1,120.78,366.69Zm11.48,34.75a2.58,2.58,0,0,0-.79-1,8,8,0,0,1-1.19-1l-1.37-1.19a50.47,50.47,0,0,1-6.48-8.58c-.23-.34-.34-.51-.56-.86,0,0-.19,0-.19-.17a.68.68,0,0,0,.18.85,7,7,0,0,0,.92,1.72c0,.17.18.34.18.51v.17c.19,0,.19.17.38.18-.2.16.19.34.18.51h.2c-.2.17,0,.34.18.52h.2c-.2.17,0,.34.18.51,0-.17,0-.17.2-.16-.2.33,0,.5.18.51h.2c-.2.34,0,.51.18.68h-.19a1.77,1.77,0,0,1,.76.86l.58.52c0,.17.19.17.19.34.39.34.77.94,1.16,1.37a3.64,3.64,0,0,0,1.37,1.2c0,.33.39.68.58.85l.2-.17,2.37,1.87C132.06,401.61,132.06,401.61,132.26,401.44Zm2-1.2-.2-.17a53.82,53.82,0,0,1-5.87-5.94c-1.32-1.53-2.48-3.25-3.61-4.79a.61.61,0,0,0-.56-.69V389a2.17,2.17,0,0,1,.56.69,54,54,0,0,0,7.91,9.38c.55.48.83.71,1.39,1.18a.69.69,0,0,0,.39.17Zm.78-1.87-.6-.5a54,54,0,0,1-5.84-6.45c-1.07-1.57-1.6-2.35-2.65-3.93-.19-.17-.18-.34-.56-.51v.34l.56.85a42.11,42.11,0,0,0,6,7.67c1.17,1,1.76,1.53,2.95,2.53C134.81,398.37,135,398.54,135,398.37Zm1.17-.18A23.48,23.48,0,0,1,134,396c-.61-.67-1.6-1.52-2.35-2.36a26.14,26.14,0,0,1-1.93-2.38c-.77-1-1.15-1.53-1.91-2.56s-1-1.53-1.69-2.56h-.19c.19.17,0,.34.19.34a1.18,1.18,0,0,0,.37.85,42.93,42.93,0,0,0,6.53,8.34,29.78,29.78,0,0,0,2.76,2.52C136,398.19,136,398.36,136.18,398.19Zm-7.46-25.92c.18-.17.37-.34.37-.51.67-1.49,1-2.23,1.66-3.72a35.55,35.55,0,0,0,2.16-7.46,39.54,39.54,0,0,0,.87-4.25l-.18.17-.52,1.53v-.17a.17.17,0,0,1-.18.17c0,.17-.17.51,0,.68v.51c0-.17-.18-.17-.18-.17-.18.34-.36.68-.18,1-.35.17-.17.51-.17.68a.31.31,0,0,0,0,.51,1.2,1.2,0,0,0-.18.67,73.34,73.34,0,0,1-3.29,9.49A6.69,6.69,0,0,0,128.72,372.27ZM134,356a2.31,2.31,0,0,0,.17-1.52.18.18,0,0,0,.17-.18c.18-.17.17-.5.35-.68a.88.88,0,0,0,.34-.68.56.56,0,0,0-.7,0,4.44,4.44,0,0,0-.16,1.53A2.31,2.31,0,0,0,134,356Zm.57,5.42c0,.17-.17.34-.17.51v.51a1.19,1.19,0,0,0-.17.68c.36,0,.17-.34.35-.68A44.59,44.59,0,0,0,135.9,357v-.67a1.42,1.42,0,0,0-.16.84A41.21,41.21,0,0,0,134.52,361.41Zm1.11,3v.67a.62.62,0,0,0,.17-.51l.52-1.7a36.36,36.36,0,0,0,1.68-6.47v-.84a4.81,4.81,0,0,0-.33,1.36C136.87,360,136.46,361.46,135.63,364.46Z"/><path class="cls-1" d="M173.47,402l.13,1.35c-.2,0-.21-.15-.23-.32a20.36,20.36,0,0,1-.63-2.32c-.47-1.7-.75-3.5-1.31-5.15a20.09,20.09,0,0,0-.42-2.35,22.79,22.79,0,0,0-.65-2.66c-.23-.64-.41-1.37-.58-2-.58-2.07-1-4.67-1.62-7s-.77-3.4-1.28-5.67a1.87,1.87,0,0,0-.49-1.32c-.16.36.06.68.09,1l1.05,5.35c.55,1.82.91,3.66,1.47,5.48l1,4.17c.42,1.87.62,2.8,1,4.67.36,1.67.79,3.37,1.28,5,.34,1.12.43,2.34.75,3.51,0,.16,0,.16-.15.52-.42-.13-.25-.48-.48-.8a2.76,2.76,0,0,0-.48-.81,2.5,2.5,0,0,1-1,2.48c-.2,0-.22-.15-.23-.32a.55.55,0,0,1-.25-.49c0-.17-.23-.31-.25-.48s-.23-.32-.24-.49c.15.8.23,1.2.38,2l-.53.74a.89.89,0,0,1-.59.22c-.4,0-.62-.12-.65-.45a54.16,54.16,0,0,1-1.28-5.51c-.75-3.13-1.12-4.7-1.85-7.84-.34-1.19-.51-1.79-.84-3a2.35,2.35,0,0,0-.28-1.17.7.7,0,0,0-.37.2l.08,1c.69,2.8,1,4.2,1.75,7,.36,2,.78,4.06,1.29,5.84.17.62.22,1.28.35,1.85a15.64,15.64,0,0,1,.18,2c-.4,0-.6.05-.82-.1l-.64-.46a1.09,1.09,0,0,0-.26-.65c-.79-3.75-1.18-5.62-1.95-9.37a52.3,52.3,0,0,1-1.23-5.69c-.2-.15-.23-.49-.25-.83l-.77.06a38,38,0,0,0-5.19.53,33.61,33.61,0,0,0-3.44.53.84.84,0,0,0-.93.73c-.17,1.3-.25,1.95-.42,3.25-.18,1.09-.27,1.64-.46,2.74a12.08,12.08,0,0,1-.05,3.05c.22.33,0,.85.07,1.36l0,.51s-.19.18-.18.34a.82.82,0,0,0-.59.2,1.08,1.08,0,0,1-.17.69c-.2-.16-.2-.16-.21-.33-.21-.16-.22-.5-.43-.66-.18.35-.37.52-.36.86-.18.52-.57.71-1.15,1.07l-.42-.49c-.19.34-.17.68-.57.87,0,0,0,.33-.38.35a1.39,1.39,0,0,1-.81-.14c-.2,0-.2-.16-.21-.33-.2-.17-.21-.34-.22-.67l0-.85c-.2,0-.19.34-.19.34a2.32,2.32,0,0,1-.55,1.38c-1-.14-1.42-.64-1.44-1.49,0-1.18.07-2.43.09-3.56a69.37,69.37,0,0,1,.77-7.15,2.61,2.61,0,0,1,.15-1.19,1.32,1.32,0,0,0-.22-.84,1.4,1.4,0,0,1,.14-1.7,4.46,4.46,0,0,0,.9-1.9c.8-4.43,1.94-8.92,3.06-13.18,1.09-4.1,2.2-8.24,3.42-12.22.54-2,.8-3,1.32-5a4.87,4.87,0,0,1,1.27-2.46c.2-.21.3-.32.49-.54a1.2,1.2,0,0,1,1.75-.11l.35,0a1.08,1.08,0,0,1,1.23-.08.53.53,0,0,0,.71.11c.17,0,.36.15.54.13l1.47.74.19.15a2.32,2.32,0,0,0,.58.64,4.66,4.66,0,0,1,.3,1.5c.2.33.24.83.46,1.32,0,.34,0,.51.42.65,0,.17.2.32.22.49.22.49.26,1,.48,1.49l.06.68c-.17.18-.15.35-.11.86l.15-.36a4.57,4.57,0,0,1,.76,2.49l-.18,0,0,.17a.57.57,0,0,0-.14.52l.55.12a20.18,20.18,0,0,1,.83,3.16c.55,2,1,3.9,1.44,5.66s.9,3.66,1.26,5.5c.91,4.07,1.37,6.11,2.31,10.17,0,.34.26.66.29,1,.1,1,.39,2,.49,3,.6,2.16,1.07,4.57,1.63,6.49A13.36,13.36,0,0,1,173.47,402ZM146.55,391.5a.68.68,0,0,0-.39-.16l-.19.18c0,.34-.17.51-.16.85-.17.86-.15,1.72-.3,2.73a40.19,40.19,0,0,1-.43,4.59,8.67,8.67,0,0,0,.27,2.2c0-.17.19-.18.19-.18,0-.68.16-1.19.13-1.87,0-.51.17-1,.15-1.53.13-1.87.43-4.43.75-6.3Zm4.1-18.85a.49.49,0,0,0,.17-.34,6.9,6.9,0,0,1,.27-1.89c.77-2.92,1.7-5.86,2.43-8.79l.75-2.42c0-.34.89-2.77.88-2.94s0-.34-.37-.32a5.57,5.57,0,0,1-.65,1.06c0,.17-.16.18,0,.51-.18,0-.35.19-.16.35a10.37,10.37,0,0,0-.91,2.77c-.17.18,0,.34,0,.51-.18,0-.35.19-.15.51l-.6,2.07c-.18,0-.16.35-.15.52a2.22,2.22,0,0,0-.31,1,.6.6,0,0,0-.15.52.56.56,0,0,0-.16.51c-.16.35-.16.35,0,.51l-.17.35c-.37-.15-.17.18-.16.35-.18,0-.16.35-.16.52a2.27,2.27,0,0,0-.31,1,.6.6,0,0,0-.15.52.91.91,0,0,0-.15.68.58.58,0,0,0-.16.52c-.17.35-.65,1.9-.45,2.23-.36.18-.35.35-.15.68-.35.36-.52.71-.32,1-.25,1-.38,1.54-.63,2.57a1,1,0,0,0-.16.69c-.18.18-.36.35,0,.51,0,.33-.54.36-.34.69,0,.17.2.33-.17.35v.34c.2.33-.17.34-.17.51s.21.33,0,.51c-.36.18,0,.34-.16.51v.34a.62.62,0,0,0-.17.52c-.38,1.85-.57,2.77-1,4.62,0,.17-.17.34,0,.68a.73.73,0,0,0,.38-.19c0-.17.17-.34.17-.51C148,383.3,150.16,373.87,150.65,372.65Zm1.09,17.94a37.72,37.72,0,0,0-.92,9.38c.15-1,.1-2,.22-3.74l.45-2.74C151.44,392.47,151.79,391.61,151.74,390.59Zm4.89-25.42c.16-.35.13-.68.3-.87l0-.5h-.18c-.16.35-.15.52-.32.7-1.19,5-1.81,7.46-3.11,12.42-.77,3.57-1.17,5.36-2,8.93l0,.68a1.26,1.26,0,0,0,.35-.7Q154,375.28,156.63,365.17Zm-.73-5.55c-.19.35-.29.52-.48.88.19.15,0,.34-.14.52.2.32,0,.67-.12,1-1.2,4.9-1.83,7.35-3.13,12.24-.78,2.76-.54,3.91.21.5,1-4.63,2.25-9.3,3.56-14,.17-.18.15-.52.31-.7A.58.58,0,0,0,155.9,359.62Zm-3.07,26.16c.28-1.88.76-3.6,1-5.49.92-3.78,1.81-7.41,2.84-11.21.13-.86.44-1.73.56-2.59a.7.7,0,0,0-.06-.84c0,.17-.17.18-.17.18,0,.34-.14.52-.12.86-1.19,4-2,8.11-3.13,12.25-.53,2.61-.8,3.91-1.35,6.52,0,.34-.16.52-.14.86,0,.17.2.16.39.15A.94.94,0,0,1,152.83,385.78Zm8.78-.39c-1-5-2.26-10-3.35-15.06a14,14,0,0,0-.55-2.68l-.2-.16-.3.87c-1,4.42-1.55,6.63-2.65,11-.53,2.55-.8,3.82-1.35,6.36l0,.68c.95-.05,2-.22,2.66-.32.88-.14,2-.22,2.85-.36A10.58,10.58,0,0,0,161.61,385.39Zm2.08-.34c-.23-.49-.27-1-.5-1.49-.37-1.74-.56-2.61-.92-4.35l-.41-.47v.17c.25.83.42,1.57.55,2.16a11.31,11.31,0,0,0,.33,1.85c-.17.18-.35.37-.13.69a4.24,4.24,0,0,0,.31,1.51v.16l.15-.52,0,.68c.21.15.21.15.58-.05Zm.57-6.85a50.27,50.27,0,0,0,1.4,7.54l.38,0C165.32,382.71,165,381.21,164.26,378.2Zm3.2,14.87a21,21,0,0,0-1-4.84l0-.34a8.19,8.19,0,0,0,.42,2.68C167,391.31,167.2,392.24,167.46,393.07Zm-1.69-17c0-.17,0-.17-.22-.32a.49.49,0,0,0-.06-.68l.06.68c.36,1.47.53,2.2.89,3.67.08.84.35,1.84.44,2.85l.88,3.33c.4,1.87.6,2.8,1,4.67.33,1.5.88,3.15,1.23,4.82.29,1.34.43,2,.71,3.34.28.83.36,1.67.64,2.5,0,.16.22.14.23.31l.07.68a.46.46,0,0,0-.07-.68c-.05-.54-.08-.81-.13-1.35l-.9-3.15c-.39-2-.91-4.25-1.36-6.17s-.93-4.23-1.36-6.34C167.29,381.58,166.56,378.68,165.77,376Z"/><path class="cls-1" d="M187.14,375.09c.05.34-.09.7.12.84l.56-.08L190,375a31.88,31.88,0,0,1,3.79-1.28l.93-.15c.18,0,.18,0,.58.07-.13.37-.5.43-.82.82.4.11.56-.09.93-.15l.56-.09c.37-.06.58.07.45.44l0,.17,0,.16.74-.12c.25.3.49.6.36,1l.43.27a4,4,0,0,1-.82.83c.4.1.56-.1.75-.13,0,.17-.16.2-.32.4-1.22.72-2.49,1.66-3.47,2.29a31.91,31.91,0,0,1-3.21,1.7l-2.5,1.4a.91.91,0,0,0-.45.92,22.2,22.2,0,0,0,.31,3.55l1,7.05a3.15,3.15,0,0,0,.39,1.31l.19,1.35c.1.67,0,1.53.11,2.21,0,.16.08.5-.32.56-.05-.34-.29-.65-.34-1a1.82,1.82,0,0,0-.05,1c0,.34.09.67-.28.9-.47-.45-.36-1.15-.63-1.63a4,4,0,0,1-1.24,2.74c-.47-.45-.12-.84-.58-1.29a.92.92,0,0,0-.11.69l.09.68c-.2,0-.2,0-.22-.14-.15.36-.33.55-.28.89a2.79,2.79,0,0,0-1.22,0,1.89,1.89,0,0,1-.33-1c-.51-4-.76-5.95-1.27-9.92-.11-2.38-.39-4.56-.67-6.75l-.15-1.18c0-.17-.21-.14-.4-.12,0,0-.19,0-.17.19l.06.51c.26,3.55.71,7.09,1.18,10.79.06.5.3.81.34,1.15l.17,1.35.19,1.51a6.78,6.78,0,0,1,0,2.91l0,.34c-1-.05-1.45-.34-1.55-1.18l-.4-3.2c-.47-3.9-.71-5.85-1.19-9.75-.1-2.38-.35-4.4-.6-6.42s-.29-3.9-.54-5.92l-.85-6.89c-.23-1.86-.3-3.9-.53-5.75l-.1-.84c-.18,0-.38-.12-.56-.1l0-.17.48-.57c-.2-.15-.36,0-.56-.1l-.36,0c-.54.07-.72.09-1.14-.37-.37-.13-.87-.07-1.13-.38a1.78,1.78,0,0,1-.29-1c-.22-.32-.6-.45-.63-.78a2.33,2.33,0,0,1,.24-1.06,6.33,6.33,0,0,1,1.76-1.74c.68-.48,1.67-1.06,2.48-1.67a119.08,119.08,0,0,1,10.82-5.32,7.65,7.65,0,0,0,.84-.31l1.21-.2,2.34.12c.55.08,1.1.16,1.36.63l.2.14a4.76,4.76,0,0,1,2.16,2,.17.17,0,0,0,.21.14c-.15.2-.29.39-.26.56a.57.57,0,0,0,.38.1,3.36,3.36,0,0,1-.82.5c-.85.32-1.31.74-2,1a1.11,1.11,0,0,1-.67.29,74.48,74.48,0,0,0-7.07,3.37l-1.35.71c-.35.05-.48.41-.44.75.15,1,.14,1.91.24,2.88.21,2.11.42,4.22.73,6.4C186.55,371,186.75,372.34,187.14,375.09Zm-9.31-18.42c-.84.45-1.53.7-1.8,1.42l.17,0c.71-.09,1-.64,1.5-1C177.87,357,177.85,356.84,177.83,356.67Zm5.31,15.38a11.65,11.65,0,0,0,0,2.57l.45,3.37,0,.33c.16-.19.16-.19.35-.22l0-.33C183.82,375.73,183.38,373.9,183.14,372.05Zm2.7-19.73-.35.05c-1.53.78-2.3,1.16-3.85,1.92a.65.65,0,0,1-.32.22c-.16.19-.16.19,0,.33l.35,0C183,353.93,184.36,353.23,185.84,352.32Zm.7,33.47c-.16-.56.19-1.39-.09-2-.36.22-.33.39-.31.56.2,1.48.3,2.21.51,3.69a7,7,0,0,0,.47,2c-.11-.81-.17-1.21-.28-2A22,22,0,0,0,186.54,385.79Zm-.7-9.14c-.16-1.18-.91-6.55-1.21-7.37.12,2.21.79,7.08.89,7.75C185.87,376.81,185.87,376.81,185.84,376.65Zm1.72,6.77c0-.16-.21-.14-.21-.14a.18.18,0,0,0-.17.2,5.57,5.57,0,0,1-.07.86c.23,1.61.34,2.42.57,4,.33,2.35.49,3.53.82,5.88l.14,1C188.77,394.73,187.66,384.1,187.56,383.42Zm-2.29-17.48a27.9,27.9,0,0,0,.34,3.72c.15,1,.13,2.21.29,3.38a21.55,21.55,0,0,0,.48,3.36c.37,0,.35-.22.32-.39-.06-.47-.1-.7-.16-1.17-.49-3.43-.73-5.14-1.22-8.56Zm-.43-3,0,.17.31,2.18a10.1,10.1,0,0,0-.13-2.21l-.05-.34C184.82,362.75,184.82,362.75,184.84,362.92ZM188,382.34l.57-.09a15.15,15.15,0,0,1,2.33-1.2c.16-.19.35-.22.49-.59-.16.2-.38.06-.35.23-.89.48-1.62.76-2.33,1.2-.17.2-.17.2-.14.36A.39.39,0,0,0,188,382.34Zm4-2c.16-.2.54-.26.7-.46.35-.22.54-.25.7-.45.53-.25,1-.68,1.58-.94l.51-.42.37-.07a4.63,4.63,0,0,0,.86-.65,1.68,1.68,0,0,0-.86.65c-.21-.13-.4-.1-.37.07a15.72,15.72,0,0,0-2.82,1.65l0,.16C192.27,380,191.89,380,192,380.38Zm27.56-31.9.43.24a1.39,1.39,0,0,1-.79.54,10.23,10.23,0,0,0-2,1c-.17,0-.31.25-.48.29-2.51,1.11-4.81,2.32-7.14,3.51l-1.31.79a.88.88,0,0,0-.21.74,17.62,17.62,0,0,0,.37,2.69c.28,1.77.71,3.92,1,5.85.38,2.26,1.43,7.84,1.91,10.17.07.33.14.66.36.79l.56-.12,2.13-1a36.34,36.34,0,0,1,3.75-1.52l.74-.17a.77.77,0,0,1,.59,0c-.11.38-.48.46-.59.83.41.08.56-.12.74-.17l.74-.17c.37-.08.41.08.49.41l0,.17,0,.16.55-.13a.74.74,0,0,1,.42.95l.64.2c-.34.25-.45.63-.78.88.41.08.56-.13.75-.18l-.49.47c-1,.75-2.2,1.55-3.37,2.5-.86.55-1.89,1.29-3,1.87l-2.44,1.55a.89.89,0,0,0-.58,1l0,.16c.48,2.33.76,4.69,1.24,7a2.76,2.76,0,0,0,.47,1.29,2.5,2.5,0,0,1,.27,1.33,18.68,18.68,0,0,1,.25,2.19c0,.17.1.5-.09.54l-.4-.95c-.33.41-.06.7-.19,1.07.07.34.33.63,0,.87-.49-.42-.43-1.12-.92-1.54a2.89,2.89,0,0,1-1.08,2.81c-.29-.46-.16-.83-.65-1.26a.9.9,0,0,0-.07.71l.13.66-.23-.12c.07.33-.1.53-.23.9l-1,0c-.46-.26-.32-.63-.39-1-.68-1.43-.68-.39-.72.48,0,.17.06.33-.14.37-.82,0-1.47-.24-1.63-1.07-.23-1.27-.35-1.91-.58-3.17-.59-3.17-1-6.54-1.6-9.71.18,1-.19-1-.37-3-.43-2.34-.65-3.5-1.09-5.84-.21-2.2-1.27-7.86-1.71-10.2l-1-5.16-.16-.84-.39-.1,0-.16.45-.6c-.21-.14-.36.06-.54.1l-.53.09c-.54.1-.75,0-1.19-.47a1.36,1.36,0,0,1-1.13-.14,1,1,0,0,1-.18-1c-.21-.14-.59-.24-.65-.57s-.12-.67.21-.9a5,5,0,0,1,1.52-1.65c.78-.61,1.78-1.19,2.56-1.86a113.87,113.87,0,0,1,10.44-5.62c.34-.08.65-.32,1-.4l1.21-.27h2.19a3.7,3.7,0,0,1,1.53.33.17.17,0,0,0,.21.13,3.75,3.75,0,0,1,2.08,1.76.17.17,0,0,1,.22.12Zm-19.1,5.68a3.21,3.21,0,0,0-1.76,1.36c.18,0,.21.14.39.11a7.7,7.7,0,0,0,1.43-1.13Zm8-4.54-.52.11a38.25,38.25,0,0,0-3.6,1.95.68.68,0,0,0-.49.27.5.5,0,0,0,.24.3c0-.17.14-.2.31-.24C206,351.07,206.81,350.59,208.42,349.62ZM211.16,383a.54.54,0,0,0-.09.53l.06.34.41,2a7.23,7.23,0,0,0-.22-2ZM208,365.3c.25,2.19,1.71,10.37,2,11,.16-.2.16-.2.12-.37A104.47,104.47,0,0,0,208,365.3Zm4.29,17.29c0-.17,0-.17-.22-.13l-.16.21.17.83,0,.16.06.34,0,.16c.4,2,.62,4,1,5.86.07.33.33.62.4,1A60.14,60.14,0,0,0,212.26,382.59Zm-3.78-20.34-.22-.13a23.33,23.33,0,0,1,.54,3.53c.54,2.66.81,4,1.36,6.64a19,19,0,0,0,.68,3.32c.18,0,.15-.2.11-.37l-.24-1.16C210.32,371.22,208.88,365.11,208.48,362.25Zm-.44-3-.18,0c0-.16-.18,0-.18,0l0,.17a7.65,7.65,0,0,0,.58,1.95c-.13-.66-.09-1.36-.23-2Zm5.16,22.13a16.86,16.86,0,0,1,2.47-1.39c.15-.21.34-.25.27-.58,0,.17-.19,0-.34.25-.69.49-1.41.82-2.28,1.35C213.35,381.15,213.35,381.15,213.2,381.36Zm4.17-2.63c.15-.2.53-.29.68-.5.53-.29,1-.74,1.54-1l.3-.41a13.93,13.93,0,0,0-2.55,1.79Z"/><path class="cls-1" d="M258.62,380.17a.55.55,0,0,0,.35.42,18,18,0,0,1-2.91,3.42c-2.09,2.08-8.1,6-11.8,7.05a22.77,22.77,0,0,1-3.79.69,6.38,6.38,0,0,1-5-1.49,10,10,0,0,1-2.36-3.6,45.11,45.11,0,0,1-2.52-6.7c-1.62-6.41-3.14-13.21-5-21.13-.37-1.62-.79-3.29-1-4.81-.15-.93-.15-2.06-.4-3a8.88,8.88,0,0,1-.37-2.18c-.07-.26-.1-.39-.17-.66.05-.53-.08-1,0-1.56l.22-1.29a1.37,1.37,0,0,1,.52-.83c.13-.21.52-.14.56,0-.09.37.17.65-.09,1.07,0,0,.22.12.26.29l.35-.1.21-.58c.13-.21.05-.53.17-.74,0-.54.29-.78.73-.72.16,0,.35.6.69.51.09-.23.13-.35.21-.58l.18-.05a3.82,3.82,0,0,0,1.37-.37c2.48-1.74,12.12-6.58,13.92-5a2.89,2.89,0,0,1,1.72.69,1.89,1.89,0,0,1,1,1.45c.05.16.22.1.27.26a1.34,1.34,0,0,1-.92.66c-2.05.66-12.11,6.67-13.59,7.43-.08.23-.12.35-.21.59a17.37,17.37,0,0,1,.37,2c.22,1.61.77,3.71,1.17,5.66.94,4.53,2.78,10.84,4,15.42l.22.82a.63.63,0,0,0,.7-.37c2-1.44,4.85-4,7.68-4a.59.59,0,0,1,.33.44l.55-.17a1.06,1.06,0,0,1,.84.1l.15.49c.42.05.73-.17,1.07.2s.38.59.25.81c.28.27.32-.27.74-.23,0,.71-.68,1.1-.85,1.86l.37-.11.78-.77c.05.16.05.16-.14.22a3,3,0,0,1-1.33,1.64c-3,2.16-6,4.43-8.54,6.36-.52.32-.63.7-.35,1a28.34,28.34,0,0,0,1.7,3.93.9.9,0,0,1,.32,1.15l.09.32a1.39,1.39,0,0,0,1,.44,3.64,3.64,0,0,1,1.15.39,1.65,1.65,0,0,0,1.05.05l1.16-.33c.19,0,9.69-6.64,9.69-6.64a.64.64,0,0,0,.32-.28,1.08,1.08,0,0,1,1.2-.2c.37-.12.56-.18.7-.41A4.24,4.24,0,0,1,258.62,380.17ZM227.3,358.58c.13.49.08,1,.25,1.69l.67,2.62c.81,3.12,1,4.65,1.39,6.13.69,2.69,1,4,1.73,6.73l.34,1.31.13.49c.29-.42.06-.54,0-.87l-1-3.77c-.62-3.17-1.47-6.45-2.7-11.21a4.11,4.11,0,0,1-.2-1.53c-.17-.65-.26-1-.43-1.64ZM234.07,384c-.21-.82-.66-1.75-.91-2.74l-.19,0A4.74,4.74,0,0,0,234.07,384Zm-.17-8.37-.13-.49-2.38-9a26.68,26.68,0,0,0-.82-3.82c-.45-1.71-.67-2.56-1.12-4.26l0-.17c1.63,7,2.44,10.51,4,17.52,0,.17.28.28.32.45A.19.19,0,0,1,233.9,375.6Zm2.51,7.93c-.18-.65-.58-1.42-.8-2.24l-.19,0a5.66,5.66,0,0,0,.67,1.75A.53.53,0,0,0,236.41,383.53Zm-.67-9.29-.22-.82c-1.37-5.08-3-11.84-4.2-17-.12-.46-.18-.68-.31-1.14l-.8-5.06-.18-.65a1.07,1.07,0,0,0-.13.91c.23,1.52.59,3.05.85,4.52.48,2.76,1.69,7.36,2.33,10.08s1.5,5.56,2.07,8.4l.17.65a.18.18,0,0,0,.23.12ZM239,383.9c-.14-.49-.46-.93-.59-1.42a2.07,2.07,0,0,0-.74-1.21A6.68,6.68,0,0,0,239,383.9Zm-2.57-10.19a.19.19,0,0,0,.14-.22l-.09-.32c-.71-2.62-1.24-5.29-2-8.07-.54-2-1.45-5.67-1.88-7.57a10.09,10.09,0,0,1-.4-2.18l-.68-2.45c-.09-1-.36-2-.45-3l-.23-.81a1,1,0,0,0-.12.91c.27,1.68.57,3.25.94,4.84.52,2.23.89,4.67,1.56,7.13,1.29,4.74,1.95,7.9,2.8,11l.13.49,0,.16C236.21,373.76,236.4,373.71,236.4,373.71Zm3.66,10.42a22,22,0,0,0-1.33-3.33l-.19.05c-.18,0-.14.22-.1.38A18.52,18.52,0,0,0,240.06,384.13Z"/><path class="cls-1" d="M103.71,113.16c-11.63-8-20.35-18.5-20.27-33.46.28-8.21,3.66-15.88,6.87-23.14s7-13.92,10.47-20.85c4.1-8.25,8-18.65,2.59-26.95A30.41,30.41,0,0,0,98.6,3.33,1.94,1.94,0,0,1,98.53.6a2,2,0,0,1,2.61-.18c13.54,10,11.14,24.29,4.5,37.69-3.45,6.94-7.19,13.74-10.45,20.71-3,6.78-6.27,13.68-6.75,21-.54,13.2,7.45,22.8,17.36,30.66a1.69,1.69,0,0,1-2.09,2.65Z"/><path class="cls-1" d="M239.06,264.26c-3.27,23.93-26,38.81-46.86,46.88-31.66,12-66.33,14.61-99.73,10.45-16.63-2-33.38-5.31-48.77-12.17-14.6-6.57-31.7-18.7-30.39-36.61a.19.19,0,0,1,.21-.18.21.21,0,0,1,.18.21c-.68,11.33,7.45,20.85,16.35,26.83,18.53,12.1,41.12,16,62.81,18.2,40.76,3.89,92.23-2.09,124.92-28.53A53.48,53.48,0,0,0,232.4,271a44.11,44.11,0,0,0,2.6-7.45,2.07,2.07,0,0,1,4.06.76Z"/><path class="cls-1" d="M199.84,90.14c13.1,3.67,30.51,9.29,39.16,20.51,6.44,8.91,2,18.38-6,24.3-25.15,18.59-75.3,21.47-106.34,23.42-28.8,1.18-57.72.89-86.24-3.85a132.9,132.9,0,0,1-21.15-5.26c-20-6.94-24.3-18.92-5.84-32.21A128.17,128.17,0,0,1,32,106.15a.41.41,0,0,1,.38.72C22.25,112.73-8.84,130.2,11,141.55c9.16,5,19.81,6.64,30.12,8.11a335.3,335.3,0,0,0,42.43,2.22c42.22-.44,84.94-4.8,125.37-17.23,6.27-2,12.78-4.35,18.22-7.81a16.13,16.13,0,0,0,5.71-5.57c3.47-7.38-9.57-16.07-14.84-19.78-5.88-4-12.14-7.41-18.37-10.87-.28-.13-.08-.57.19-.48Z"/><path class="cls-1" d="M45.76,272.46c-12.68-9.44-21.63-23-28.88-36.86C1.36,204.45-2.69,168.35,1.61,134.08a1.17,1.17,0,0,1,2.33.18c-.15,3.14-.31,6.27-.5,9.4l-.27,4.65c.08,4.56-.06,9.47,0,14C4.06,187,9,211.94,19.08,234.56c6.59,13.95,14.59,27.94,26.8,37.73.11.07,0,.26-.12.17Z"/><path class="cls-1" d="M252.65,188c11.19-12.42,22-25.44,30.39-39.86,4.58-8.37,10.65-19.83,3.66-28.12-8.85-9.19-33.2,4.44-38.35,13.59l.49-1.88c-1.47,56.59-21,124.41-78.31,147.22-27.2,10.31-57.18,14.3-85.86,8.71A84.26,84.26,0,0,1,68,282.75a.17.17,0,0,1-.09-.21.17.17,0,0,1,.21-.08A83.11,83.11,0,0,0,84.8,287c22.76,4,46.39,1.68,68.41-5,10.94-3.32,21.63-7.63,31-14.13,33.29-22.71,47.11-64,51.39-102.48,1.32-11.06,1.36-22.28,1.8-33.38l.2-2.85c1.26-2.17,3.62-4,5.21-5.36,12.32-9.51,36.73-24,50-9.17,7.12,9.08,4.65,19.83-.4,28.89-9.9,17.49-24.22,32-38.88,45.37a.64.64,0,0,1-.9-.9Z"/><path class="cls-1" d="M139.21,109.51c-9.3-7.09-15.64-16.67-15.39-28.82.27-6.79,2.71-13.21,5.12-19.34s5.2-11.77,7.8-17.62c3-7,5.89-15.34,2.12-22.39a24.63,24.63,0,0,0-3.53-4.69A1.93,1.93,0,0,1,138,13.9c10.38,8.46,8.5,21,3.68,32-4.17,9.63-9.18,19.13-11.91,29.21C126.29,87.71,132,98.66,141.46,107a1.69,1.69,0,0,1-2.25,2.51Z"/></g></g></svg>