<svg xmlns="http://www.w3.org/2000/svg" viewBox="0 0 579.89 813.83"><defs><style>.cls-1{fill:#796261;}</style></defs><g id="Layer_2" data-name="Layer 2"><g id="Layer_1-2" data-name="Layer 1"><path class="cls-1" d="M83.92,721.83a5.29,5.29,0,0,0-1.67.64l-4.79.92A7.09,7.09,0,0,0,76,724.75L75.43,727a79.14,79.14,0,0,0-2.34,8c-1.64,6-3.17,12.61-4.89,18.41a85.9,85.9,0,0,0-2.47,11.78,7.82,7.82,0,0,0-.25,2.69,6.75,6.75,0,0,1-.94,3.89c-.19.24-.85.14-1.24,0-.09.38-.14.58-.23,1,0,0-.39-.1-.47.23a.35.35,0,0,1-.3-.42,1.66,1.66,0,0,1-.45-1.49c-1.09,1.11-1.88,2.64-3.59,2.9-.38-.1-.38-.1-.69-.52-.08.33-.46.23-.46.23-.17.65-.63.87-1.18,1.42-.39-.09-.47.23-.86.13-1.63-.07-1.93-.49-2-1.88l.58-2.27a1.78,1.78,0,0,0-.05-1.39,13.57,13.57,0,0,1,.62-4c.91-3.56,1.45-7.22,2.37-10.78a19.27,19.27,0,0,0,.8-4.62l.25-1c-.83.13-.54.55-1,.77-.24.91-.35,1.36-.59,2.27-.55,3.65-1.4,7.76-2.1,11.19A37.44,37.44,0,0,0,52.9,771a5,5,0,0,1-1.14,2.82c-.16.64-.55.54-1.32.34a3.13,3.13,0,0,1-1.72-2.87c.23-.9.35-1.35.59-2.26.81-4.62,1.92-8.82,2.65-13.12a3.32,3.32,0,0,0,0-1.72c-.09.33-.46.23-.93.45A48.62,48.62,0,0,1,44,760a17.18,17.18,0,0,1-4.69,2.17l-1.8.54a5.36,5.36,0,0,0-1.79.54l-.38-.11c-3.6,1.07-7.13,1.79-11,1s-7.65-2.3-10.47-5.28a12.6,12.6,0,0,1-3.51-6,21.38,21.38,0,0,1-.59-7.2A61.59,61.59,0,0,1,14,727.3a142.45,142.45,0,0,1,9.19-19.85c1.71-3,3.52-5.93,5.62-9.08,2.28-3.42,9.31-11.52,11.87-14.85a51.73,51.73,0,0,1,8.22-8.68,32.42,32.42,0,0,1,7.2-4.49c3.32-1.41,6.81-2.21,10.16-1.29a7.66,7.66,0,0,0,1.44.05c2.16.1,5.61,1.87,8.06,3.55a4.05,4.05,0,0,1,1.94,2.23l.85.91c-.17.64-.34,1.29-.76,1.53-.16.64-1.35,1-2,.85a2.21,2.21,0,0,0-1.44,0,5.31,5.31,0,0,1-2.46-.3,11.62,11.62,0,0,0-6,.47c-.09.32-.52.55-1,.78a32,32,0,0,0-6,4.56,34.33,34.33,0,0,0-4.39,5l-1.68,2c-1.87,2.59-8.33,9.84-10,12.38a97.46,97.46,0,0,0-8.25,14.62c-1.74,4.22-2.62,6.33-4.37,10.55a67.13,67.13,0,0,0-3.1,10.23,34.44,34.44,0,0,0-1.4,8.65,16,16,0,0,0,1.28,6.66,3,3,0,0,0,1.42,2.16.77.77,0,0,1,.94-.41,46.51,46.51,0,0,0,5.54-3.61,66.64,66.64,0,0,0,15.47-15.1c2.28-3.12,3.41-4.68,5.65-7.81.46-.23.54-.55.71-1.2-1.62.26-3.38.69-4.52.86a25.35,25.35,0,0,1-4.37.17,2.05,2.05,0,0,1,1.73-.56,42.37,42.37,0,0,0,7.87-1.66.44.44,0,0,0,.18-.65,6.76,6.76,0,0,0-2.44.39,9.54,9.54,0,0,1-2.9.59,7.5,7.5,0,0,1-2.9.59,22.37,22.37,0,0,1-2.91.57c.19-.64.55-.54.64-.86a20.07,20.07,0,0,0,3.9-1.34c3-.57,4.45-.86,7.4-1.45.45-.23.81-.13.62-.87-.09.32-.45.22-.81.12A89.48,89.48,0,0,1,48.94,726c-.45.22-.81.12-.9.44a2.5,2.5,0,0,1-2.82-1.14A2.07,2.07,0,0,0,44,724.22a1.84,1.84,0,0,1-.89-2.34,2.25,2.25,0,0,0,.1-1.71,2.11,2.11,0,0,1,.56-1.92A11.25,11.25,0,0,1,46,715.77a22.09,22.09,0,0,1,4.4-1.88c3.76-1,7.41-1.75,11.39-2.42S68,710.62,72,710a25.16,25.16,0,0,1,6.87-.36,2.81,2.81,0,0,1,2,1.17c.36.08.28.41.2.73-.35-.08-.43.24-.79.15a28.53,28.53,0,0,1-6.33,1.2,5.66,5.66,0,0,0-2.3.11c-6.85,1.3-10.3,1.91-17.24,3-.45.23-1.16,0-2,.15l-1.43,1c-.45.22-.81.12-1,.76.36.1.81-.12,1.17,0,4.13-.93,7.89-1.6,11.79-2.34,3.59-.67,7.55-1.14,11.52-1.87a37.25,37.25,0,0,1,5.82-.64c.36.08.8-.15,1.51,0s1.06.25,1.19,1.31l-1.46,1.37a5,5,0,0,0,2.22.18c-.07.33-.07.33.29.41.25,2.12.26,2.13-1.77,2.68l-3.62.85s-.44.24-.52.56c1.16-.06,2.12-.47,3.19-.61.75-.09,1.67-.63,2.75-.38.2.73-.16.65-.59.89l-3.26.95a7.78,7.78,0,0,0-2.48.78c-.36-.09-.44.23-.88.47l.73.18a15.2,15.2,0,0,0,3.19-.61c.75-.22,1.67-.64,2.47-.79C83.64,721.42,83.56,721.75,83.92,721.83Zm-40.1-36.3c.09-.32.44-.22.53-.54a.35.35,0,0,0-.44.22,8.6,8.6,0,0,0-2.59,2.35c-1.37,2-7.22,8.62-8.61,10.64a96.17,96.17,0,0,0-7.85,12.59c-2.07,4.53-3.1,6.79-5.19,11.32A83,83,0,0,0,15.13,735c-.2.64-.77,1.16-1.08,2.11l-.51,1.59c.58-.52.58-.52.68-.84-.13,1.93-.19,2.89-.31,4.82a1.13,1.13,0,0,0,.17.75,10.8,10.8,0,0,0,.34-2.35c.22-3.19,2-7.44,3.18-11.26,1.86-4.31,2.78-6.47,4.63-10.79,1.47-3.39,3.18-7,4.76-10.06C31.1,701,38.27,693.4,43.82,685.53ZM19,743.6c.55-4.38,1.58-9,2.61-13.53l-.2.63a25.14,25.14,0,0,0-2.43,9c-.25,1.32-.37,2-.62,3.3a1.39,1.39,0,0,0,.64.55c-.1.32-.57.53-.67.84A1.12,1.12,0,0,0,19,743.6Zm3.89,3.3a98.87,98.87,0,0,1,4.32-20.69c-.28.89-.41,1.34-.69,2.23s-.85,1.49-1.15,2.45a78.22,78.22,0,0,0-2.39,9.05l-.45,5.45C22.39,745.71,22.29,746,22.84,746.9Zm2.46-2.74A51.06,51.06,0,0,1,30,726c1.34-3.07,3.07-6.6,4.45-9.48a116.41,116.41,0,0,1,6-11.09c1.47-2.35,2.93-4.7,4.83-7.28a70.57,70.57,0,0,1,5.55-6c.28-.47.43-.71.72-1.18-.79.12-.54.54-.72,1.18-.35-.1-5.52,4.66-5.61,5a7.12,7.12,0,0,0-1.46,2.36c-2.45,3.1-4.21,6.41-6.33,9.61l-2.42,4.16c-2.07,4.26-4.16,8.51-5.88,12.88s-3.47,8.72-4.1,13.42a18.16,18.16,0,0,0-.73,6.41,1.1,1.1,0,0,0,.08,1.07C24.78,745.88,25,745.31,25.3,744.16Zm33.35-23.84.09-.32-2.78.29c-.28-.42-.19-.75-.72-.2-.36-.1-.45.22-.81.13-.18.64-.54.54-.9.44A20,20,0,0,1,49.66,722c-.45.22-.81.12-1,.76l.72.2C53.11,721.94,55,721.41,58.65,720.32Zm6.24,45c.24-1,.1-2,.34-3,1-4.22,2.06-8.44,2.72-12.75.23-.91.34-1.36.56-2.27l-.37-.09c-.83,3.37-1.25,5.06-2.08,8.44a43.27,43.27,0,0,1-1.29,6.9l-.72,2.92c.38.1.3.42.22.75A1.14,1.14,0,0,0,64.89,765.37Zm9.69-39.59a6.62,6.62,0,0,0-1,2.51c-1.11,4.54-2.68,9.32-3.79,13.86l-.4,1.62a20.15,20.15,0,0,0,1.48-4.45,19.88,19.88,0,0,1,1.48-4.45l1.12-4.55A10,10,0,0,0,74.58,725.78Z"/><path class="cls-1" d="M146.38,728c-1,3.5-1.45,5.25-2.42,8.76l-2.1,6.44a42.6,42.6,0,0,1-2.59,7l-.15,1a2.94,2.94,0,0,0-1.11,2.2c-.47.6-.52.93-.95,1.2-1.28.82-1.06,1.86-1.21,2.85a1.6,1.6,0,0,1-.69,1.93,5.71,5.71,0,0,0-1.71,3.45l0,.33c-.91.87-1.09,2.4-1.66,3.12a25,25,0,0,0-2,2.72c-.44.27-.44.27-.49.6a35.73,35.73,0,0,1-9.39,8.93,31.31,31.31,0,0,1-10,4.66,12.3,12.3,0,0,1-5.24,0c-8.69-1-14.26-5.55-17.52-12.75A27.79,27.79,0,0,1,84.57,760a62.11,62.11,0,0,1,1.31-14.77c.35-1.9.58-4.32,1-6.28,1.39-6.19,2.71-12.06,5.1-17.69,1.85-4.24,2.77-6.36,4.6-10.61a117.43,117.43,0,0,1,6.7-12.23,40.13,40.13,0,0,1,13.81-12.84A12.62,12.62,0,0,1,121,684a1.53,1.53,0,0,1,.83,1.18c.4-.26,1.09-.13,1.49-.4a2.18,2.18,0,0,1,2.8.19l.68.12a5.13,5.13,0,0,1,3,.9l2.06.36a15.42,15.42,0,0,1,7.25,2.95,21.42,21.42,0,0,1,8.56,13.2,56.3,56.3,0,0,1,.67,9.9A54.39,54.39,0,0,1,146.38,728ZM92,735.29a115.39,115.39,0,0,1,3.87-12.49,109,109,0,0,1,9.51-20.18,12.1,12.1,0,0,0,.69-1.56c-.76.18-.9.83-1.32,1.09-1.37,2.31-2,3.46-3.43,5.76-2,4-4,8.36-5.74,12.77a128.75,128.75,0,0,0-4.6,14,85.28,85.28,0,0,0-2.08,11.18c-.48,2.22-.73,3.33-1.21,5.55a10.06,10.06,0,0,1-.35,3.34c-.07.33.24.74.17,1.07l.5-2.29a25.57,25.57,0,0,0,.18,2.78c0,.94-.07,1.42-.12,2.36.23.74,0,1.72.26,2.45.45-.24.59-.89.66-1.22a2.25,2.25,0,0,1-.1-1.39,117.31,117.31,0,0,1,1-11.75C90.31,742.8,91.1,739.21,92,735.29Zm1.22,25.21a3.71,3.71,0,0,0,0-2,114,114,0,0,1,2.92-23c.13-.65.2-1,.34-1.64-.87,3.37-1.3,5.06-2.18,8.42-.63,2.94-1.12,6.14-1.51,8.9-.35,2.49,0,5.47-.16,8.17C92.48,760,92.79,760.42,93.17,760.5Zm4.3.21A67,67,0,0,1,98.8,742.9c.88-4.25,1.47-8.91,2.72-13.09l.2-1a3.83,3.83,0,0,0-.77,1.89c-.28,1.31-.91,2.54-1.25,4.18-.55,2.61-.82,3.92-1.37,6.54-.68,3.27-.83,6.83-1.3,10a24.42,24.42,0,0,0,.2,8.56,2.2,2.2,0,0,0,.11,1.39Zm2,0a71.12,71.12,0,0,1,.29-9.14,101.5,101.5,0,0,1,2.74-17.18,111,111,0,0,1,3.92-11.81c1.69-4.36,3.65-8.81,5.56-12.86.48-.58.9-.84.26-1.31a1.86,1.86,0,0,0-.61,1.24,105.55,105.55,0,0,0-5.93,12.78c-1.55,4.1-2.8,8-4,12.14a77.19,77.19,0,0,0-2.79,15.46,33.54,33.54,0,0,0-.22,6.78c.11,1.38-.23,3,.65,4.56C99.35,761.16,99.38,761,99.43,760.76Zm34.43-46.62a60.05,60.05,0,0,0-.48-7.88,24.28,24.28,0,0,0-3.57-10.46c-.23-.72-.87-1.17-1.44-1.95a2.33,2.33,0,0,0-2.07-.38.75.75,0,0,1-.82.53,32.64,32.64,0,0,0-5.27,5.13c-3.6,3.73-5.91,8-8.24,12.35a101.9,101.9,0,0,0-5.76,13.84c-1.15,3.45-1.72,5.17-2.88,8.62a28.21,28.21,0,0,0-.74,3.6c0,2.47-1,5.77-1.36,8.59a67,67,0,0,0-1.07,11,29.15,29.15,0,0,0,1.7,9.2,16.19,16.19,0,0,0,5.43,6.84c1,1.2,1.35,1.27,2.75.17a46.16,46.16,0,0,0,10.17-12.76,95.67,95.67,0,0,0,7.3-17.73c1.48-4.76,3-9.82,4.28-14.19A59.42,59.42,0,0,0,133.86,714.14Zm3.95,2.68a18.34,18.34,0,0,0-.81-6.23c.25.72-.78,13.76-.89,14.42A21,21,0,0,0,137.81,716.82Zm3.67-.09a11.68,11.68,0,0,0-.18-5.78A31.18,31.18,0,0,0,141.48,716.73Zm3.82-8.2c-.11,3-.57,6-.31,9.08A18.67,18.67,0,0,0,145.3,708.53Zm1.51-.44a1.91,1.91,0,0,0,.15,1.37c-.2,3.69-1.14,9-.58,11.07a4.72,4.72,0,0,1,.16,1.37C148,717.38,147.56,712.6,146.81,708.09Z"/><path class="cls-1" d="M173.93,709c0,.4-.07.6-.11,1,.83-1,1.24-1.47,2.06-2.46-1.32,2.21-2.29,4.45-3.62,6.65a1.7,1.7,0,0,1-.87,1.25l-1.18.87c-.55,1.61-2.1,2.18-3.57,2.59a57.54,57.54,0,0,1-5.93.94,6.09,6.09,0,0,1-4.24-.91,1.42,1.42,0,0,0-1-.48,3.1,3.1,0,0,1-1.86-2.28c.09-.66,1.11-2.33,1.79-2.45a5.72,5.72,0,0,0,3.6-2.54,65.21,65.21,0,0,0,6.34-13c1.94-5.07,3.81-10.63,5.82-15.77.13-1.06.19-1.59.32-2.66.54-1,.81-1.51,1.34-2.53,0-.33,1.13-.87,1.47-.83a7.71,7.71,0,0,1,.81,1.78c-.08.66-.12,1-.19,1.66a1.15,1.15,0,0,0,.26.7.34.34,0,0,1,.3.38c.41-.63.49-1.29.87-1.59.07-.66-.19-1.36.23-2,0-.33.45-1,.79-.91s.63.41,1.27.81c0,.27,0,.4-.08.67.71-.26,1.13-.88,1.8-.81.71-.26,1.31.48,1.65.52a11.32,11.32,0,0,1,1.92,1.21,9.34,9.34,0,0,1,0,3,103.36,103.36,0,0,1-5.74,17.86C176.49,703.45,175.64,705.3,173.93,709Zm.75-27.49c-.38.29-.76.58-.8.91-1,5.27-3.32,10.37-5.32,15.18-1.21,2.94-1.82,4.42-3.05,7.36a35.84,35.84,0,0,0-2.48,5.41c1.5-.48,1.66-1.81,2.54-3,1.43-2.85,2.5-5.74,3.91-8.6,1.9-5.15,2.84-7.73,4.69-12.9C174.37,684.1,174.48,683.23,174.68,681.51Zm2.6,4.34.68.07c.15-1.32.64-2.61.75-3.61a.33.33,0,0,0-.3-.37C177.92,683.23,177.77,684.56,177.28,685.85Zm8.16-5.5a16.07,16.07,0,0,1-.65,2.95c-1.44,4.71-3.2,10.75-5.16,15.92l-.81.92c1.1-3.58,2.44-7.3,3.57-10.37.8-2.2,1-4.85,1.76-6.87A6.76,6.76,0,0,1,185.44,680.35ZM180,689.18a12.39,12.39,0,0,0,2.16-7.16A53.85,53.85,0,0,1,180,689.18Z"/><path class="cls-1" d="M225.5,793h.39c0,.67,0,1-.07,1.67a7,7,0,0,0-.16,4c0,.4,0,.6,0,1-1.56-.73-2.62-1.55-2.66-2.78-.07-2.51-.57-5-.45-7.72-.28-4.29-.42-6.44-.69-10.73.23-5,.29-10.24.3-15,0-4.17-.46-9.34.22-13a27.85,27.85,0,0,0,.17-3.67l.44-9.68c.71-7.33,1.67-15.17,2.82-22.62a108.83,108.83,0,0,1,2.66-12.93,12.17,12.17,0,0,1,1.88-3.6,3.49,3.49,0,0,1,1.78-1.27c.67.69,1,1.7.26,2.35-.31,1.06-.47,1.59-.79,2.64a2.08,2.08,0,0,1-.76,1.65c.36-.32.38-.66.05-1.34l-.05,1.34c0,.33.33.68.32,1a76,76,0,0,0-2.08,8.28c-.34,2-.72,4.48-1,6.65-.14,1.23-.46,2.66-.5,3.66-.35-.35-.33-.68-.31-1.35,0,1-.42,1.65-.09,2.34a1.15,1.15,0,0,0-.4,1,116.65,116.65,0,0,0-1.29,13.32c0,4.51,0,9.7-.24,14.37a3.88,3.88,0,0,1-.46,2c0,.54,0,.8-.06,1.34.22,3.68.11,15.38-.06,19.39,0-.67.06-1.34.46-1.65.28,2.35-.58,4.65-.31,7.34,0-.67.05-1,.43-1a31,31,0,0,1-.62,5.65l.83-1.3a21.14,21.14,0,0,1-.59,5l.82-1-.1,2.67a5.7,5.7,0,0,1-.49,2.32Zm.65-62.17a.35.35,0,0,1,.38-.32c-.11,2.53-.16,3.8-.26,6.34h-.37Zm50.64,58.59a1.15,1.15,0,0,0,.41,1,4.06,4.06,0,0,1-1.94.38c0,.33-.38.67-.38.67,0,1,0,1.67-.74,2.36l-.37.67a3.13,3.13,0,0,1-2.32,2.38,4.19,4.19,0,0,0-2,.37,2.66,2.66,0,0,1-1.57.35,8.9,8.9,0,0,1-4.34-1,52.83,52.83,0,0,1-9-6.67,49.34,49.34,0,0,1-4.26-4.37l-1.54-1.36a79.6,79.6,0,0,1-9-11.51,7,7,0,0,1-1.48-2l-.75-.69a1.1,1.1,0,0,0-.4,1c.28,3.69.26,7.39.49,10.71.13,1.84.48,4.53.61,6.7.1,1.84.3,3.68.25,5.69l0,2.34c-.78-.36-.78-.69-.76-1.36-.33-2.68-.46-5.54-.57-8.37-.07-1.87-.17-4.46-.22-6.36-.09-3.5-.19-7.35-.47-11a3.77,3.77,0,0,0-.33-2c-.38,0-.39.32-.4.65-.1,3.68.17,7.7.07,11.37.34,4.42.51,6.63.87,11-.06,2,.28,4,.23,6,0,.4,0,.6,0,1,0,.13,0,.2,0,.33-.4,0-.79,0-.78-.35a20.1,20.1,0,0,0-.66-4.7c-.29-6.56-.43-9.84-.7-16.4.08-2.67-.21-5.69-.14-8.36a6.51,6.51,0,0,0-.3-2.68.34.34,0,0,0-.38.32c-.39.32-.39.32-.4.66,0,1.07-.05,1.6-.09,2.67-.39.32,0,.67,0,1s.38,0,.37.35c0,.8,0,1.2-.06,2-.09,3,.4,6.2.5,9,.06,1.87.27,4,.21,6s.28,3.69.23,5.36c0,1,.34,2,.3,3.35a1.12,1.12,0,0,1-.36-1l-.4,0,0,.67c.36,1.35-.46,2.33-2.06,3-.38-.35,0-1-.35-1.35,0-.54,0-.8,0-1.34-1-5.71-.57-12-1-17.75-.18-2.58-.19-5.69-.48-8.37.08-2.14.12-3.21.19-5.34a1,1,0,0,0-.35-.68.34.34,0,0,0-.39.32c-.07,1.87-.1,2.8-.17,4.67a27,27,0,0,1-.24,6.68,11.55,11.55,0,0,0,.24,4c0-.94.05-1.4.08-2.34.28,3,.18,6,.45,9.38.23,2.28.35,3.42.59,5.7-.07,2,.26,4,.19,6,0,.4,0,.6,0,1l-.4,0c-.44,1.33-.84,1.31-2.8.91l-.38-.35c0-.67-.35-1.35-.32-2-.21-7.09-.31-10.64-.49-17.74a104.65,104.65,0,0,1-.33-11c.18-4.34.33-8.69.15-13-.2-4.67.38-9.35.59-14.36.21-5.34.83-11,1.38-16.33.26-2.49.27-5.37.69-8.33A82.24,82.24,0,0,1,231.45,705a6.66,6.66,0,0,1,1.49-2.62,4.7,4.7,0,0,0,.77-2c0-.67.4-1.66.41-2,.74-1.31,1.09-1.64,2.47-1.26.33.34.67.69.66,1,.35,0,.69,0,.7-.31.35,0,.35,0,.36-.33,1.37.37,2.06.72,2.38,1.74.35,0,.7-.32,1.05-.31s.33.67.33,1a15,15,0,0,1-.39,1.66,81.18,81.18,0,0,0-2.75,12,84.56,84.56,0,0,1-1.69,10,39.93,39.93,0,0,1-.5,5c-1.07,6.68-.79,14.69-1,21.7l0,1.34c.39-.32.77-.65.78-1,0-.54,0-.8,0-1.34.13-4.67.46-9.52.76-14,.46-7,1.24-15.09,2.38-22.33.46-2.95,1.19-5.65,2-8.64.36-.66.38-1.33.74-2s.37-1,.73-1.32c.34,0,0,.33,0,.33V702c-.76,2.66-1.43,5.49-1.93,8-.67,3.33-1.2,7.37-1.68,11a256.26,256.26,0,0,0-1.79,27c0,.26,0,.4,0,.66V749a.75.75,0,0,0,.75-.65,117,117,0,0,0,13.18-23.17c1.84-5,3.6-10.74,5.06-16,1-3.64,2.05-7.76,2.79-11.69a23,23,0,0,1,1.37-4.69l1.7-2a1,1,0,0,1,1.72.32,4.87,4.87,0,0,1,.37,2.34c0-.34.33-.67.33-1,.34-.33.34-1,.67-1.68s1-.67,1.72,0a1.18,1.18,0,0,0,.35,1,.34.34,0,0,1,.34-.34c.35,0,.35,0,.34-.34.69.33,1,.32,1.38.65a1.6,1.6,0,0,0,1.74,1c.28.4.42.6.71,1a5.71,5.71,0,0,1,.41,3.34c-1,3.36-1.55,6.48-2.26,9.73-1.15,5.27-2.65,10.73-4.39,16.1-.69,2-1.4,3.69-2.1,6,.72,0,.72-.67.71-1.34A67.63,67.63,0,0,0,269,714.4c1.19-4.61,2.32-9.4,3.27-14.1l.93-5.36a1.54,1.54,0,0,1,.39,2c-.37,2.42-.55,3.63-.92,6a166.42,166.42,0,0,1-6.37,23.16c-1.76,3.69-3.18,7.38-5,10.73-2.18,4-4.38,8-7,12-2.24,3.2-3.37,4.79-5.66,8-.76,1-.77,1.67-.4,2.34a79.26,79.26,0,0,0,7.11,10.08,97.48,97.48,0,0,0,11.55,12.31c2.19,1.58,3.28,2.37,5.49,3.94a5.06,5.06,0,0,0,3.13,1.27l.8.65c0,.34.4.66.8,1C277.17,788.76,276.39,789.11,276.79,789.44Zm-41.56-82,1.2-5a.33.33,0,0,0-.34-.34l-.73,1,0,1.34c-.37.65-.4,1.65-.77,2.31-.84,4.32-1.59,8.78-2.21,13A131.65,131.65,0,0,0,230.76,734c-.24,6.68-.67,13.2-1.07,19.36-.11,1.62.25,3.35.19,5,0,.33,0,.33.36.35.39-.32,0-.67,0-1.34.06-1.6.09-2.4.14-4,.18-5,.56-10.19.89-14.68.55-7.37.93-15.37,2.23-23A71.79,71.79,0,0,1,235.23,707.44Zm1.37,13.41c.45-3.33,1.1-6.45,1.68-9.31s1.2-5.65,2-8.31c0-.33.37-1-.32-1.34l-.36.33c0,.66-.38,1.32-.4,2-.78,3.32-1.44,6.84-2,10a137.57,137.57,0,0,0-2.22,14.64c-.26,3.85-.24,8-.72,11.68-.14,4.54-.22,6.81-.36,11.36a2.77,2.77,0,0,0,.32,1.68c0-.34.39-.33.4-.66,0-.53,0-.8,0-1.33A264.75,264.75,0,0,1,236.6,720.85Zm22.62,68.47a5.16,5.16,0,0,0-1.56-2,15.29,15.29,0,0,1-2.33-2l-2.7-2.36a99.24,99.24,0,0,1-12.78-16.89l-1.1-1.7s-.37,0-.37-.34a1.36,1.36,0,0,0,.34,1.68,14.93,14.93,0,0,0,1.82,3.38c0,.33.37.68.36,1v.34c.38,0,.37.34.75.35-.39.32.37.67.36,1h.38c-.39.33,0,.67.37,1h.38c-.39.33,0,.67.36,1,0-.34,0-.34.39-.33-.39.66,0,1,.37,1h.38c-.39.66,0,1,.36,1.34h-.38a3.52,3.52,0,0,1,1.51,1.7l1.14,1c0,.33.38.33.38.67.76.68,1.51,1.86,2.28,2.7a7.17,7.17,0,0,0,2.69,2.36c0,.67.77,1.34,1.16,1.68.15-.14.23-.2.39-.33l4.66,3.68C258.83,789.65,258.83,789.65,259.22,789.32Zm3.89-2.36-.39-.33a106.28,106.28,0,0,1-11.57-11.71c-2.6-3-4.9-6.4-7.12-9.45a1.19,1.19,0,0,0-1.11-1.35v.66a5.06,5.06,0,0,1,1.11,1.36,106.09,106.09,0,0,0,15.58,18.5l2.73,2.33a1.45,1.45,0,0,0,.78.33Zm1.53-3.68-1.17-1A106.43,106.43,0,0,1,252,769.58c-2.11-3.09-3.15-4.63-5.22-7.74-.37-.34-.37-.67-1.12-1,0,.27,0,.4,0,.67.44.68.67,1,1.11,1.69a83.27,83.27,0,0,0,11.72,15.11c2.31,2,3.47,3,5.81,5C264.25,783.28,264.64,783.61,264.64,783.28Zm2.32-.36a47,47,0,0,1-4.29-4.31c-1.19-1.32-3.14-3-4.62-4.66a47.66,47.66,0,0,1-3.8-4.69c-1.52-2-2.27-3-3.76-5s-2-3-3.34-5.06h-.37c.37.34,0,.67.36.67a2.41,2.41,0,0,0,.73,1.68A86.2,86.2,0,0,0,260.75,778a63.55,63.55,0,0,0,5.43,5C266.57,782.93,266.57,783.26,267,782.92Zm-14.71-51.09c.36-.33.73-.66.73-1,1.32-2.93,2-4.4,3.28-7.33,2.16-4.68,3.17-9.76,4.25-14.71a76,76,0,0,0,1.71-8.36l-.35.34c-.41,1.2-.61,1.81-1,3v-.33a.33.33,0,0,1-.35.33c0,.34-.34,1,0,1.34v1c0-.33-.35-.33-.35-.33-.35.67-.7,1.34-.35,2-.7.34-.35,1-.35,1.34a.6.6,0,0,0,0,1,2.45,2.45,0,0,0-.35,1.34,146.33,146.33,0,0,1-6.49,18.69A13.4,13.4,0,0,0,252.25,731.83Zm10.31-32.07a4.58,4.58,0,0,0,.33-3,.33.33,0,0,0,.34-.33c.35-.34.34-1,.68-1.35a1.7,1.7,0,0,0,.68-1.34,1.09,1.09,0,0,0-1.38,0,9.12,9.12,0,0,0-.32,3A4.59,4.59,0,0,0,262.56,699.76Zm1.13,10.69c0,.33-.35.67-.35,1s0,.6,0,1a2.45,2.45,0,0,0-.35,1.34c.71,0,.35-.67.7-1.34a90.28,90.28,0,0,0,2.71-10.72c0-.53,0-.8,0-1.33a2.88,2.88,0,0,0-.33,1.67A77.33,77.33,0,0,0,263.69,710.45Zm2.17,6c0,.53,0,.8,0,1.34a1.18,1.18,0,0,0,.34-1c.42-1.34.62-2,1-3.35a72.77,72.77,0,0,0,3.32-12.75c0-.67,0-1,0-1.67a10.14,10.14,0,0,0-.65,2.68C268.31,707.59,267.51,710.54,265.86,716.44Z"/><path class="cls-1" d="M340.44,790.51l.27,2.65c-.4,0-.43-.29-.46-.62A43,43,0,0,1,339,788c-.92-3.34-1.47-6.9-2.57-10.15a39.15,39.15,0,0,0-.84-4.62,43.44,43.44,0,0,0-1.28-5.25c-.46-1.27-.8-2.71-1.14-3.91-1.15-4.08-2-9.21-3.19-13.8-1-4.47-1.52-6.7-2.52-11.17a3.75,3.75,0,0,0-1-2.6c-.31.7.12,1.33.18,2,.82,4.22,1.24,6.32,2.07,10.54,1.08,3.59,1.79,7.22,2.89,10.81.76,3.28,1.15,4.92,1.92,8.21.81,3.68,1.22,5.52,2,9.2.71,3.29,1.56,6.65,2.53,9.82.67,2.2.85,4.62,1.47,6.91,0,.33,0,.33-.29,1-.82-.25-.49-1-.95-1.58a5.16,5.16,0,0,0-1-1.59,4.9,4.9,0,0,1-1.91,4.89c-.39,0-.42-.3-.45-.63a1.11,1.11,0,0,1-.49-1c0-.34-.46-.63-.49-1s-.45-.62-.48-1c.3,1.59.45,2.38.76,4l-1.06,1.44a1.66,1.66,0,0,1-1.16.44c-.79.07-1.21-.23-1.27-.89a99,99,0,0,1-2.53-10.85c-1.48-6.18-2.21-9.27-3.65-15.45-.66-2.36-1-3.54-1.64-5.9a4.44,4.44,0,0,0-.57-2.3,1.37,1.37,0,0,0-.73.4c.06.8.1,1.2.16,2,1.36,5.52,2.05,8.28,3.45,13.79.72,4,1.54,8,2.54,11.52.35,1.22.45,2.52.71,3.63a30.76,30.76,0,0,1,.34,4c-.79.06-1.18.1-1.61-.2l-1.27-.9a2.12,2.12,0,0,0-.5-1.3c-1.56-7.38-2.33-11.08-3.85-18.46a100.24,100.24,0,0,1-2.41-11.21c-.41-.3-.46-1-.51-1.63l-1.52.11c-3.43-.08-7,.67-10.21,1a65.58,65.58,0,0,0-6.8,1.06,1.67,1.67,0,0,0-1.83,1.43c-.33,2.56-.49,3.84-.83,6.4-.35,2.16-.53,3.24-.89,5.39a25.1,25.1,0,0,1-.1,6c.42.65.08,1.67.12,2.67l0,1a1.15,1.15,0,0,0-.36.69,1.59,1.59,0,0,0-1.16.39,2.2,2.2,0,0,1-.33,1.35c-.41-.32-.41-.32-.42-.65-.41-.32-.44-1-.84-1.3-.36.68-.74,1-.71,1.7-.35,1-1.12,1.39-2.27,2.1l-.83-1c-.37.68-.34,1.35-1.11,1.72a.7.7,0,0,1-.77.69,2.56,2.56,0,0,1-1.58-.28c-.4,0-.41-.32-.42-.65-.4-.32-.41-.65-.44-1.32l0-1.67c-.39,0-.37.68-.37.68a4.62,4.62,0,0,1-1.09,2.71c-2-.27-2.79-1.25-2.84-2.92-.07-2.34.14-4.8.19-7a133.44,133.44,0,0,1,1.5-14.08,5.06,5.06,0,0,1,.31-2.35,2.71,2.71,0,0,0-.43-1.66,2.74,2.74,0,0,1,.27-3.35,9,9,0,0,0,1.77-3.74c1.58-8.74,3.81-17.58,6-26,2.14-8.08,4.32-16.25,6.73-24.07,1.06-3.94,1.58-5.91,2.61-9.85a9.53,9.53,0,0,1,2.49-4.84l1-1.07c1.32-1.08,2-1.13,3.45-.22l.69,0a2.1,2.1,0,0,1,2.41-.17,1.06,1.06,0,0,0,1.41.23c.34,0,.71.28,1.06.26l2.89,1.44.38.31a4.74,4.74,0,0,0,1.14,1.25,9.08,9.08,0,0,1,.6,3c.4.63.48,1.63.91,2.6.06.67.09,1,.81,1.28,0,.33.41.63.44,1,.43,1,.52,2,1,2.94,0,.53.06.8.11,1.33-.32.37-.3.7-.21,1.7l.3-.7q1.18,1.41,1.49,4.9l-.36,0,0,.34a1.22,1.22,0,0,0-.27,1l1.1.24c.89,1.93,1.1,4.26,1.63,6.23,1.08,3.93,2,7.68,2.83,11.15s1.77,7.21,2.49,10.84c1.79,8,2.7,12,4.55,20,.06.66.51,1.29.57,2,.2,2,.77,4,1,6,1.19,4.24,2.1,9,3.21,12.77A26.69,26.69,0,0,1,340.44,790.51Zm-53.05-20.78a1.4,1.4,0,0,0-.77-.31l-.37.35c0,.67-.35,1-.32,1.69-.33,1.68-.3,3.37-.59,5.36-.33,2.32-.15,6.7-.85,9.06a17.23,17.23,0,0,0,.53,4.33c0-.34.38-.35.38-.35,0-1.34.31-2.35.26-3.69,0-1,.32-2,.29-3,.26-3.69.85-8.73,1.48-12.43C287.41,770.33,287.41,770.13,287.39,769.73Zm8.09-37.14a1,1,0,0,0,.32-.68,13.7,13.7,0,0,1,.54-3.71c1.52-5.76,3.35-11.55,4.78-17.33.6-1.9.89-2.86,1.48-4.77,0-.67,1.76-5.47,1.74-5.8s0-.67-.74-.62a11.13,11.13,0,0,1-1.27,2.08c0,.34-.32.36.07,1-.35,0-.68.37-.31.68a21,21,0,0,0-1.79,5.46c-.33.36,0,.67.06,1-.35,0-.69.37-.3,1-.47,1.63-.71,2.45-1.19,4.08-.35,0-.32.69-.3,1a4.49,4.49,0,0,0-.6,2,1.17,1.17,0,0,0-.3,1,1.21,1.21,0,0,0-.31,1c-.32.69-.32.69.06,1l-.33.69c-.73-.3-.34.35-.32.68-.36,0-.32.69-.31,1a4.51,4.51,0,0,0-.61,2,1.15,1.15,0,0,0-.31,1,1.9,1.9,0,0,0-.3,1.35,1.17,1.17,0,0,0-.31,1c-.33.69-1.27,3.74-.88,4.39-.71.37-.69.71-.3,1.36-.69.7-1,1.38-.63,2-.49,2-.74,3-1.24,5.07a1.87,1.87,0,0,0-.31,1.36c-.35.35-.71.7,0,1,0,.66-1.08.71-.68,1.36,0,.34.4.66-.34.69,0,.27,0,.4,0,.67.4.65-.34.68-.33,1s.4.65,0,1c-.72.37,0,.67-.33,1,0,.27,0,.4,0,.67a1.16,1.16,0,0,0-.33,1c-.74,3.64-1.12,5.46-1.89,9.1,0,.33-.35.68.05,1.33a1.33,1.33,0,0,0,.74-.36c0-.33.35-.68.34-1C290.74,751.24,292.8,741.8,295.48,732.59ZM297.61,768c-1,2.39-2.32,15.83-1.81,18.48.3-2,.2-4,.43-7.37.36-2.16.54-3.24.89-5.4C297,771.66,297.71,770,297.61,768Zm9.64-50.09c.31-.69.27-1.36.6-1.72,0-.4,0-.6-.07-1l-.35,0c-.31.69-.29,1-.62,1.38-2.36,9.8-3.58,14.69-6.13,24.47-1.52,7.05-2.31,10.57-3.92,17.6,0,.54,0,.81.07,1.34a2.48,2.48,0,0,0,.69-1.37Q302,738.15,307.25,717.86Zm-1.43-11-.95,1.74c.38.31.05.66-.29,1,.4.64.09,1.33-.22,2-2.37,9.66-3.6,14.48-6.17,24.12-1.54,5.44-1.07,7.72.42,1,2-9.2,4.43-18.43,7-27.52.33-.36.29-1,.62-1.38A1.24,1.24,0,0,0,305.82,706.9Zm-6.05,51.57c.55-3.71,1.49-7.11,2-10.82,1.81-7.47,3.57-14.6,5.61-22.1.25-1.69.86-3.41,1.1-5.1a1.41,1.41,0,0,0-.11-1.66c0,.33-.34.35-.34.35.05.67-.29,1-.24,1.69-2.35,7.86-4,16-6.17,24.15-1,5.15-1.57,7.72-2.66,12.86,0,.67-.32,1-.29,1.69,0,.33.4.31.77.29A1.86,1.86,0,0,1,299.77,758.47Zm17.29-.78c-1.94-9.94-4.38-19.79-6.6-29.67a27.06,27.06,0,0,0-1.08-5.28l-.39-.31-.6,1.71c-2,8.71-3.05,13.06-5.21,21.76-1.05,5-1.58,7.52-2.66,12.53,0,.53,0,.8.07,1.33,1.88-.1,3.89-.43,5.25-.63,1.72-.26,3.92-.44,5.61-.7S315.24,758.5,317.06,757.69Zm4.1-.66c-.45-1-.53-2-1-2.93l-1.8-8.58-.81-.94c0,.14,0,.2,0,.34.5,1.63.83,3.1,1.08,4.27a23.16,23.16,0,0,0,.66,3.63c-.35.37-.69.73-.27,1.37a8.38,8.38,0,0,0,.61,3c0,.14,0,.2,0,.34.12-.41.18-.62.29-1,0,.53.07.8.11,1.33.4.3.4.3,1.13-.09C321.2,757.43,321.18,757.3,321.16,757Zm1.14-13.5c-.26,1.36,2.29,13.89,2.76,14.86l.75-.07C324.39,752.41,323.68,749.45,322.3,743.53Zm6.31,29.3a43.08,43.08,0,0,0-2-9.55c0-.26,0-.4-.06-.66-.2,2,.54,3.8.84,5.29A47.42,47.42,0,0,0,328.61,772.83Zm-3.35-33.58c0-.33,0-.33-.42-.63a1,1,0,0,0-.12-1.33c0,.53.07.8.12,1.33.69,2.89,1,4.33,1.75,7.22.15,1.67.7,3.63.87,5.63l1.73,6.55c.79,3.69,1.19,5.53,2,9.21.65,3,1.73,6.22,2.43,9.51l1.4,6.58c.55,1.62.71,3.29,1.26,4.91,0,.33.42.3.45.63l.13,1.33a.9.9,0,0,0-.13-1.33c-.1-1.07-.15-1.6-.26-2.66-.71-2.48-1.06-3.73-1.77-6.21-.76-4-1.79-8.38-2.69-12.16s-1.82-8.35-2.68-12.5C328.25,750.18,326.83,744.48,325.26,739.25Z"/><path class="cls-1" d="M367.38,737.4c.1.66-.17,1.38.24,1.65l1.1-.15,4.26-1.65a67.64,67.64,0,0,1,7.47-2.52l1.83-.29c.36-.06.36-.06,1.14.14-.25.72-1,.84-1.61,1.62.79.21,1.1-.18,1.83-.3l1.1-.18c.73-.12,1.15.15.9.87l.05.33.06.33,1.46-.25c.48.59,1,1.19.71,1.91l.84.54a8.13,8.13,0,0,1-1.61,1.63c.79.2,1.1-.19,1.47-.25.06.33-.31.39-.62.78-2.42,1.43-4.92,3.27-6.85,4.52a61.13,61.13,0,0,1-6.33,3.35l-4.92,2.75A1.83,1.83,0,0,0,369,754a44.1,44.1,0,0,0,.61,7c.79,5.56,1.19,8.34,2,13.9a6.33,6.33,0,0,0,.76,2.59c.15,1.06.23,1.59.38,2.64.19,1.33,0,3,.22,4.36.05.33.14,1-.63,1.1-.1-.66-.58-1.27-.67-1.93a3.58,3.58,0,0,0-.11,2c.09.66.18,1.33-.55,1.77-.92-.89-.71-2.27-1.24-3.21-.41,2.76-.71,3.48-2.44,5.4-.92-.89-.23-1.66-1.14-2.55a1.78,1.78,0,0,0-.21,1.38c.07.53.1.79.17,1.32-.39,0-.39,0-.43-.28-.31.72-.65,1.1-.57,1.76a5.84,5.84,0,0,0-2.39,0,3.72,3.72,0,0,1-.65-1.94l-2.5-19.56c-.21-4.68-.77-9-1.32-13.3l-.3-2.32c0-.33-.42-.28-.79-.24,0,0-.38,0-.33.38l.12,1c.51,7,1.39,14,2.31,21.26.13,1,.6,1.61.68,2.27.14,1.06.2,1.59.34,2.65s.23,1.79.38,3a13.45,13.45,0,0,1-.07,5.73l.08.66c-2-.08-2.86-.65-3.06-2.31l-.78-6.3L354.51,763c-.2-4.68-.69-8.66-1.18-12.64s-.57-7.68-1.06-11.65c-.67-5.44-1-8.16-1.68-13.6-.45-3.65-.59-7.67-1-11.32l-.2-1.66c-.36.05-.75-.24-1.11-.2,0-.13,0-.2,0-.33l.94-1.12c-.39-.29-.71.08-1.1-.2l-.71.08a1.93,1.93,0,0,1-2.23-.74c-.75-.25-1.72-.12-2.23-.75a3.44,3.44,0,0,1-.59-1.95c-.42-.62-1.16-.87-1.24-1.54a4.74,4.74,0,0,1,.47-2.07,12.53,12.53,0,0,1,3.49-3.44c1.34-.94,3.27-2.08,4.88-3.29,6.89-3.91,14.12-7.31,21.32-10.49a16.25,16.25,0,0,0,1.66-.6l2.39-.39,4.61.24c1.08.15,2.16.3,2.67,1.23l.4.27a9.47,9.47,0,0,1,4.26,4,.33.33,0,0,0,.4.27c-.28.39-.57.78-.51,1.11a1.21,1.21,0,0,0,.75.2,5.8,5.8,0,0,1-1.61,1c-1.67.64-2.59,1.48-3.92,2.05A2.19,2.19,0,0,1,381,696,146.76,146.76,0,0,0,367,702.67l-2.66,1.4a1.2,1.2,0,0,0-.86,1.48c.29,2,.27,3.76.46,5.67.43,4.16.84,8.32,1.46,12.62C366.22,729.26,366.6,732,367.38,737.4ZM349,701.1c-1.66.88-3,1.38-3.55,2.8l.35,0c1.4-.17,2-1.25,2.94-2C349.12,701.76,349.08,701.43,349,701.1Zm10.46,30.31a23.92,23.92,0,0,0-.07,5.07c.36,2.65.53,4,.89,6.62,0,.27.05.4.09.66.32-.38.32-.38.69-.42l-.09-.67C360.83,738.65,360,735.06,359.49,731.41Zm5.32-38.88-.69.1c-3,1.53-4.53,2.28-7.57,3.78a1.19,1.19,0,0,1-.65.42c-.3.38-.3.38.09.67l.7-.1C359.28,695.7,361.91,694.31,364.81,692.53Zm1.38,66c-.31-1.11.38-2.75-.17-4-.71.43-.66.76-.62,1.09.41,2.91.61,4.37,1,7.28a14.16,14.16,0,0,0,.92,3.92c-.22-1.59-.32-2.38-.54-4A37.14,37.14,0,0,0,366.19,758.49Zm-1.37-18c-.32-2.31-1.8-12.9-2.39-14.51.24,4.36,1.57,13.95,1.75,15.28C364.87,740.79,364.87,740.79,364.82,740.46Zm3.4,13.36c-.05-.33-.43-.28-.43-.28a.34.34,0,0,0-.32.39,14.2,14.2,0,0,1-.14,1.7c.44,3.18.66,4.77,1.11,7.94.65,4.64,1,6.95,1.62,11.58l.28,2C370.59,776.09,368.4,755.14,368.22,753.82Zm-4.52-34.46a52.46,52.46,0,0,0,.67,7.33c.28,2,.25,4.35.57,6.67.29,2,.24,4.35.94,6.62.73-.11.69-.44.64-.77l-.33-2.31L363.79,720C363.75,719.76,363.74,719.63,363.7,719.36Zm-.85-6,0,.33c.24,1.72.37,2.58.61,4.3a19,19,0,0,0-.26-4.35c0-.26-.05-.4-.09-.66C362.8,713.08,362.8,713.08,362.85,713.41Zm6.2,38.26,1.12-.16a29.46,29.46,0,0,1,4.6-2.36c.32-.39.7-.45,1-1.16-.33.38-.75.11-.7.44-1.76.94-3.2,1.49-4.59,2.37-.32.38-.33.38-.28.71A.77.77,0,0,0,369.05,751.67Zm7.8-3.86c.32-.38,1.06-.5,1.38-.89.69-.44,1.06-.5,1.38-.89,1.06-.5,2.07-1.34,3.12-1.85l1-.84.74-.12a8.4,8.4,0,0,0,1.68-1.3,3.33,3.33,0,0,0-1.68,1.3c-.42-.27-.79-.21-.74.12a32.39,32.39,0,0,0-5.55,3.25l.05.33C377.49,747,376.75,747.15,376.85,747.81ZM431.17,685l.84.48a2.78,2.78,0,0,1-1.55,1.07,19.71,19.71,0,0,0-3.89,2c-.35.08-.62.49-1,.57-4.94,2.19-9.48,4.58-14.07,6.92L409,697.52a1.72,1.72,0,0,0-.43,1.45,37.32,37.32,0,0,0,.74,5.31c.55,3.47,1.39,7.72,2,11.52.75,4.45,2.83,15.45,3.77,20,.14.65.27,1.3.71,1.55l1.1-.22,4.19-1.92a70.68,70.68,0,0,1,7.4-3l1.45-.33a1.46,1.46,0,0,1,1.17.07c-.21.74-.94.91-1.16,1.64.81.16,1.1-.25,1.46-.33l1.46-.34c.74-.17.81.16,1,.81l.08.32.07.33,1.1-.26a1.44,1.44,0,0,1,.82,1.87l1.26.39c-.66.5-.87,1.24-1.53,1.73.81.16,1.1-.25,1.47-.34l-.95.91c-2,1.49-4.35,3.06-6.65,4.94-1.71,1.07-3.72,2.54-5.81,3.67l-4.81,3.06c-1.05.56-1.29,1.29-1.15,2,0,.13,0,.2.06.33,1,4.58,1.51,9.24,2.45,13.82a5.6,5.6,0,0,0,.92,2.54,5.21,5.21,0,0,1,.54,2.62c0,1.09.6,2.94.49,4.33.06.33.2,1-.19,1.06-.31-.75-.47-1.13-.79-1.88-.63.81-.11,1.39-.37,2.12.14.65.66,1.23-.05,1.71-1-.82-.85-2.21-1.82-3,.14,2.7-.11,3.44-2.12,5.54-.58-.91-.32-1.64-1.29-2.47a1.79,1.79,0,0,0-.13,1.38c.1.53.15.79.26,1.31l-.46-.25c.13.66-.19,1.06-.45,1.79l-2,0c-.91-.51-.64-1.24-.77-1.89-1.34-2.81-1.35-.77-1.43,1,.07.33.13.65-.26.73-1.62,0-2.91-.48-3.21-2.12-.46-2.5-.69-3.75-1.16-6.24-1.15-6.25-2-12.89-3.15-19.13.37,2-.36-2-.73-6-.85-4.6-1.28-6.9-2.14-11.5-.42-4.33-2.51-15.5-3.37-20.1l-1.9-10.18c-.12-.66-.18-1-.31-1.64l-.76-.2-.06-.33.87-1.18c-.41-.26-.7.13-1.05.19l-1.06.2c-1.05.19-1.46-.07-2.34-.93a2.74,2.74,0,0,1-2.23-.28,2,2,0,0,1-.35-2c-.41-.27-1.16-.48-1.28-1.13s-.23-1.32.41-1.77a9.85,9.85,0,0,1,3-3.26c1.54-1.2,3.5-2.35,5-3.66a226.11,226.11,0,0,1,20.57-11.08c.68-.15,1.29-.63,2-.78l2.38-.54,4.3,0a7.22,7.22,0,0,1,3,.65.34.34,0,0,0,.42.25,7.49,7.49,0,0,1,4.09,3.47.34.34,0,0,1,.43.24Zm-37.64,11.21a6.26,6.26,0,0,0-3.46,2.68c.35-.07.41.26.75.2a14,14,0,0,0,2.83-2.23C393.6,696.55,393.57,696.42,393.53,696.16Zm15.79-9-1,.22a73.42,73.42,0,0,0-7.1,3.85,1.3,1.3,0,0,0-1,.53,1,1,0,0,0,.48.59c-.07-.33.28-.4.62-.47C404.54,690.05,406.14,689.11,409.32,687.2ZM414.71,753a1.15,1.15,0,0,0-.18,1.06c.06.26.08.39.13.65l.8,3.93a14.44,14.44,0,0,0-.42-4C414.91,753.94,414.84,753.61,414.71,753Zm-6.29-34.86c.51,4.33,3.38,20.45,4,21.68.3-.4.3-.4.23-.72C412.58,736.69,409.11,719.66,408.42,718.1Zm8.47,34.08c-.07-.33-.07-.33-.44-.26-.12.17-.19.25-.31.41.14.65.2,1,.34,1.64,0,.13,0,.19.06.32l.14.66.06.33c.8,3.92,1.22,7.93,1.95,11.53.14.66.65,1.23.79,1.89C419.66,767.64,417.53,753.41,416.89,752.18Zm-7.46-40.08-.43-.26a46.08,46.08,0,0,1,1.06,6.95c1.07,5.24,1.6,7.85,2.68,13.09.4,2,.5,4.33,1.34,6.55.36-.08.3-.4.23-.73-.19-.92-.28-1.38-.47-2.29C413.06,729.77,410.22,717.73,409.43,712.1Zm-.86-6-.36.08c-.06-.33-.35.07-.35.07l.07.32a15.31,15.31,0,0,0,1.16,3.86c-.27-1.31-.19-2.69-.46-4Zm10.16,43.62A34.79,34.79,0,0,1,423.6,747c.3-.4.67-.48.53-1.14.07.33-.37.08-.67.49-1.35,1-2.77,1.62-4.5,2.66C419,749.35,419,749.35,418.73,749.75Zm8.23-5.18c.3-.4,1-.57,1.34-1,1-.57,2-1.47,3-2.05l.6-.82a28.69,28.69,0,0,0-5,3.53Z"/><path class="cls-1" d="M508.24,747.41a1.13,1.13,0,0,0,.69.83c-1.26,2.52-3.59,4.32-5.73,6.74-4.12,4.1-16,11.84-23.25,13.89a46.43,46.43,0,0,1-7.48,1.36,12.51,12.51,0,0,1-9.8-2.94,19.82,19.82,0,0,1-4.66-7.08,91.28,91.28,0,0,1-5-13.22c-3.51-13.81-6.58-28-9.78-41.64-.75-3.19-1.55-6.47-2-9.48-.3-1.83-.3-4.06-.79-6a18.27,18.27,0,0,1-.74-4.3c-.13-.52-.19-.78-.33-1.3.1-1-.15-2-.06-3.08s.26-1.52.44-2.53a2.64,2.64,0,0,1,1-1.65.68.68,0,0,1,1.1.06c-.17.74.34,1.29-.17,2.12a1.16,1.16,0,0,1,.51.55l.68-.17.42-1.15c.26-.41.09-1.06.34-1.47.08-1.06.57-1.53,1.44-1.42.3,0,.68,1.2,1.36,1l.42-1.16.33-.09c1.11.05,1.7-.46,2.71-.74,7.68-4.79,18.09-11,27.44-9.87,1.44-.11,2.65.91,3.39,1.37a3.69,3.69,0,0,1,2,2.85c.1.32.44.21.54.53a2.89,2.89,0,0,1-1.82,1.28c-8.9,3.47-17.88,9.77-26.77,14.65-.17.46-.26.69-.42,1.15a33.93,33.93,0,0,1,.72,4c.44,3.17,1.52,7.31,2.32,11.15,2.07,10,5.15,20.3,7.95,30.38l.44,1.61a1.22,1.22,0,0,0,1.38-.72c3.95-2.83,9.56-7.91,15.13-7.83a1.14,1.14,0,0,1,.65.85l1.09-.33a2.07,2.07,0,0,1,1.65.2l.29,1c.82.1,1.45-.33,2.11.4.48.53.76,1.17.49,1.6.56.53.63-.54,1.46-.45,0,1.39-1.33,2.16-1.68,3.66l.73-.22,1.54-1.52c.1.32.1.32-.27.43a6,6,0,0,1-2.61,3.25c-5.94,4.24-11.87,8.73-16.85,12.53-1,.63-1.22,1.37-.67,1.91,1.17,2.8,1.88,5.38,3.34,7.75a1.75,1.75,0,0,1,.63,2.25l.17.65a2.93,2.93,0,0,0,1.88.86,6.93,6.93,0,0,1,2.26.76,3.31,3.31,0,0,0,2.08.1c.91-.25,1.37-.38,2.28-.65.38-.1,19.09-13.08,19.09-13.08a1.33,1.33,0,0,0,.65-.55,2.07,2.07,0,0,1,2.34-.4c.75-.24,1.13-.36,1.4-.8A8,8,0,0,1,508.24,747.41Zm-61.72-42.55c.25,1,.15,2,.48,3.33.54,2.07.81,3.1,1.34,5.17,1.59,6.15,2,9.15,2.73,12.07,1.36,5.3,2.05,8,3.42,13.26.26,1,.4,1.55.66,2.59l.25,1c.58-.84.12-1.07,0-1.71-.76-3-1.15-4.47-1.92-7.44-1.22-6.24-2.89-12.71-5.32-22.09a8.6,8.6,0,0,1-.4-3c-.33-1.29-.5-1.94-.84-3.23Zm13.35,50c-.42-1.62-1.3-3.46-1.8-5.4l-.38.1A9.39,9.39,0,0,0,459.87,754.9Zm-.34-16.49-.25-1-4.7-17.77a54.5,54.5,0,0,0-1.61-7.52l-2.22-8.4c0-.13-.05-.19-.09-.32q4,17.27,8,34.53c.08.32.53.55.62.87C459.16,738.51,459.53,738.41,459.53,738.41ZM464.47,754c-.34-1.29-1.15-2.81-1.57-4.42l-.38.1a11.72,11.72,0,0,0,1.32,3.45A1.11,1.11,0,0,0,464.47,754Zm-1.32-18.33c-.17-.64-.26-1-.43-1.61-2.89-11.11-5.62-22.24-8.27-33.41-.25-.91-.37-1.36-.61-2.26-.63-4-.95-6-1.59-10l-.35-1.29a2.05,2.05,0,0,0-.25,1.8c.44,3,1.16,6,1.66,8.9.95,5.45,3.35,14.51,4.61,19.87s2.95,11,4.06,16.55l.35,1.29c.09.32.46.22.46.22Zm6.36,19c-.26-1-.9-1.83-1.16-2.8a4.08,4.08,0,0,0-1.45-2.38A13.55,13.55,0,0,0,469.51,754.76Zm-5.06-20.09s.37-.1.28-.42l-.18-.65c-1.4-5.15-2.45-10.41-3.95-15.89-1.05-3.87-2.85-11.17-3.69-14.92a20.31,20.31,0,0,1-.8-4.29l-1.32-4.83c-.19-2-.72-4-.91-6-.17-.64-.26-1-.44-1.61a2.12,2.12,0,0,0-.25,1.8c.54,3.32,1.14,6.41,1.87,9.53,1,4.4,1.76,9.22,3.07,14.06,2.55,9.35,3.85,15.57,5.51,21.7.11.38.16.58.27,1l.08.32C464.08,734.77,464.45,734.67,464.45,734.67Zm7.21,20.54a44.08,44.08,0,0,0-2.6-6.56l-.38.1c-.37.11-.28.43-.2.75A36.19,36.19,0,0,0,471.66,755.21Z"/><path class="cls-1" d="M204,219.93c-8.19-6.21-16.36-12.71-22.93-20.77a67.91,67.91,0,0,1-15.61-43.81c.28-10.51,3.75-20.69,7.44-30.38,7.44-19.1,17.5-37,26.7-55.2,8.3-16.85,16.12-38.46,4.46-55.52a60.84,60.84,0,0,0-9.91-10.9A1.93,1.93,0,0,1,196.66.44a61.32,61.32,0,0,1,11,11.29c10,13.26,8.28,31.37,2.86,46.09-3.46,9.76-8.41,18.83-13.1,28-9.14,17.94-18.95,35.94-24.52,55.26-7.58,24.44,3,50,21.64,66.39,3.7,3.39,7.6,6.61,11.54,9.83a1.69,1.69,0,0,1-2.09,2.65Z"/><path class="cls-1" d="M467.7,518.62c-7.49,45.93-51.23,74.15-91.45,90C314.34,632.42,246.54,637.54,181,630c-27.27-3.06-54.52-8-80.52-17-29.6-10.69-64.14-28.62-73.94-60.79A45.9,45.9,0,0,1,25,535.85a.2.2,0,0,1,.39,0A45.1,45.1,0,0,0,27.25,552c8.54,26.54,34.4,42.46,58.79,52.82,30.31,12.47,62.85,18.4,95.35,21.71,64.76,6.71,131.9.78,192.65-23.44,29.48-12.26,58.85-29.2,77.11-56.07a92.68,92.68,0,0,0,7.63-14,84.81,84.81,0,0,0,4.87-15.19,2.06,2.06,0,0,1,4.05.75Z"/><path class="cls-1" d="M392.31,176.08c28.06,9.24,103.92,37.61,71.12,76.42-54.38,61.61-377.06,72.66-445.86,29.07-25.39-16.15-13.23-35.45,5.88-50.36,11.93-9.22,25.07-16.63,38.38-23.46a.41.41,0,0,1,.38.72C45,218,21.49,231.57,10.44,247.77c-22.33,33.92,47.29,44.56,68.84,47.77,55.65,7.36,112.16,6.26,168,2.26,55.63-4.44,111.49-12.18,164.76-29a203.9,203.9,0,0,0,26.19-10.4c6.47-3.27,13.14-7.18,18.18-12.35,22.28-21.74-19.61-45.61-36.13-55.15-5.87-3.31-12.61-6.71-18.69-9.72-3.14-1.58-6.34-3.06-9.51-4.6-.31-.13-.09-.58.19-.48Z"/><path class="cls-1" d="M88.82,535.07c-19.88-14.85-34.71-35.43-47.19-56.65C9.13,421.79-2.71,355,.51,290.3c.38-5.1.84-13.44,1.42-18.51l1-9.23a1.17,1.17,0,1,1,2.32.25L4.5,272c-.48,5.06-.8,13.27-1.08,18.42-2.27,64.27,9.21,130.07,40,187C55,498.87,70.24,520.05,88.82,535.07Z"/><path class="cls-1" d="M496.92,369.21a580.7,580.7,0,0,0,42.8-50.54c9.81-13.24,19.1-26.94,26-41.86,4.19-9.41,8.28-20.2,6.26-30.39a28.69,28.69,0,0,0-6.26-13.52c-17-18.07-55.3,2-70.49,15.42-3.83,3.36-7.66,7.22-10.2,11.53l.49-1.87c0,11.65-.69,23-1.67,34.59-8.36,89.57-39.16,188.18-118.95,238.75-45.53,28.13-112.33,40.93-165.39,37.77-22.76-1.5-45.76-5.05-67-13.81-.18-.08,0-.38.13-.29,42.17,16.21,90.94,16.07,134.93,8.18,44.2-8.41,89-24,121.7-56,61.4-59.81,81.29-149.3,84.37-232.26.16-5.65.48-13.5.44-19.1a36.33,36.33,0,0,1,6.18-7.31,114.55,114.55,0,0,1,15.88-12.58c22.12-15.2,66-33.31,80.71.1,6.4,14.82,1.36,30-5.51,43.54-13,24.86-31.34,46.4-50.2,66.93-7.6,8.11-15.36,16-23.41,23.67a.64.64,0,0,1-.9-.9Z"/><path class="cls-1" d="M274,212.81c-6.39-5.44-12.84-11.27-17.83-18.44-8.69-12.51-12.91-28.47-10.53-43.62,3.42-19,11.81-36.49,19.65-53.86,3.45-7.56,7.1-15.07,9.59-23,3.68-11.45,5.35-24.09-.83-34.75a48.25,48.25,0,0,0-7.47-9.47A1.94,1.94,0,0,1,269.31,27C284.61,40.36,285.66,57,279.93,75.5c-2.53,8.18-6.21,15.89-9.71,23.64-6.81,15.17-14.14,30.39-18.29,46.45-4.38,15.73-1.22,32.87,7.73,46.41,4.45,6.84,10.45,12.58,16.6,18.3a1.69,1.69,0,0,1-2.25,2.51Z"/></g></g></svg>