<svg id="Logo" xmlns="http://www.w3.org/2000/svg" viewBox="0 0 945.62 641.15">
  <g>
    <path d="M568.42,459a4.69,4.69,0,0,0-1.34,1l-4,2a7.17,7.17,0,0,0-1,1.67V466c-.33,2.67-.27,5.75-.33,8.35-.16,6.19-.08,13-.33,19a99.53,99.53,0,0,0,.33,12,8.75,8.75,0,0,0,.33,2.67,7.34,7.34,0,0,1,0,4c-.11.27-.67.33-1,.33v1a.32.32,0,0,0-.33.33.32.32,0,0,1-.33-.33,1.75,1.75,0,0,1-.67-1.34c-.67,1.34-1,3-2.34,3.67a1,1,0,0,1-.67-.33.32.32,0,0,1-.33.33c0,.67-.33,1-.67,1.67-.33,0-.33.33-.67.33-1.34.33-1.67,0-2-1.34V514.1a2.05,2.05,0,0,0-.33-1.34,16.47,16.47,0,0,1-.33-4c0-3.67-.33-7.35-.33-11a22.35,22.35,0,0,0-.33-4.68v-1c-.67.33-.33.67-.67,1v2.34c.33,3.67.51,7.84.67,11.36a42.74,42.74,0,0,0,.67,7.35,5.88,5.88,0,0,1-.33,3c0,.67-.33.67-1,.67a2.91,2.91,0,0,1-2-2.34v-2.34c-.33-4.68-.33-9-.67-13.36a3.68,3.68,0,0,0-.33-1.67c0,.33-.33.33-.67.67a51.93,51.93,0,0,1-4.68,7,15.56,15.56,0,0,1-3.34,3.34l-1.34,1a4.69,4.69,0,0,0-1.34,1h-.33c-2.67,2-5.35,3.68-8.69,4a14.33,14.33,0,0,1-9.69-2c-2-1-3.39-3.09-4.34-4.68a23.44,23.44,0,0,1-2.34-6.68A72,72,0,0,1,510,483a154.53,154.53,0,0,1,2.34-21.72c.65-3.33,1.39-6.71,2.34-10.36,1-4,5-13.77,6.35-17.71a50.52,50.52,0,0,1,5-10.69,30.77,30.77,0,0,1,5.35-6.35c2.67-2.28,5.68-4,9-4a8.76,8.76,0,0,0,1.34-.33c2-.47,5.68.33,8.35,1.34a3.87,3.87,0,0,1,2.34,1.67l1,.67a2.52,2.52,0,0,1-.33,1.67c0,.67-1,1.34-1.67,1.34a2.05,2.05,0,0,0-1.34.33,5,5,0,0,1-2.34.33,10.56,10.56,0,0,0-5.35,2c0,.33-.33.67-.67,1a30.55,30.55,0,0,0-4.34,6,34.37,34.37,0,0,0-2.67,6l-1,2.34c-1,3-4.83,11.78-5.68,14.7a102.2,102.2,0,0,0-3.34,16.37l-1,11.36a77.74,77.74,0,0,0,0,10.69,40,40,0,0,0,1,8.69,17.57,17.57,0,0,0,2.67,6,2.72,2.72,0,0,0,1.67,1.67.72.72,0,0,1,.67-.67,46.9,46.9,0,0,0,3.67-5,75.53,75.53,0,0,0,9.36-18.71c1.2-3.61,1.8-5.41,3-9,.33-.33.33-.67.33-1.34-1.34.67-2.74,1.55-3.68,2a21.87,21.87,0,0,1-3.67,1.34,1.77,1.77,0,0,1,1.34-1,39.14,39.14,0,0,0,6.35-3.68.47.47,0,0,0,0-.67c-.67,0-1.34.67-2,1a8.5,8.5,0,0,1-2.34,1.34,6.6,6.6,0,0,1-2.34,1.34,20.34,20.34,0,0,1-2.34,1.34c0-.67.33-.67.33-1a19.06,19.06,0,0,0,3-2.34l6-3.34c.33-.33.67-.33.33-1,0,.33-.33.33-.67.33-2.34,1.67-5,3.34-7.35,4.68-.33.33-.67.33-.67.67a2,2,0,0,1-2.67-.33,1.75,1.75,0,0,0-1.34-.67,1.83,1.83,0,0,1-1.34-2,2.52,2.52,0,0,0-.33-1.67,2.33,2.33,0,0,1,0-2,11.67,11.67,0,0,1,1.34-3,19.79,19.79,0,0,1,3.34-3,85.19,85.19,0,0,1,9.36-5.35l8.69-4a21.14,21.14,0,0,1,6-2,2.43,2.43,0,0,1,2,.67c.33,0,.33.33.33.67-.33,0-.33.33-.67.33a26.73,26.73,0,0,1-5.35,2.67,4.61,4.61,0,0,0-2,.67l-14.37,7.35c-.33.33-1,.33-1.67.67l-1,1.34c-.33.33-.67.33-.67,1,.33,0,.67-.33,1-.33,3.34-2,6.46-3.64,9.69-5.35,3-1.57,6.35-3,9.69-4.68a30.77,30.77,0,0,1,5-2c.33,0,.67-.33,1.34-.33s1,0,1.34,1l-1,1.67a4.25,4.25,0,0,0,2-.33.29.29,0,0,0,.33.33,2.31,2.31,0,0,1-1,3l-3,1.67a1.16,1.16,0,0,0-.33.67c1-.33,1.77-1,2.67-1.34.64-.27,1.34-1,2.34-1,.33.67,0,.67-.33,1l-2.67,1.67a6.74,6.74,0,0,0-2,1.34c-.33,0-.33.33-.67.67h.67a13,13,0,0,0,2.67-1.34c.62-.38,1.34-1,2-1.34.33,0,.33.33.67.33Zm-44.1-24.73c0-.33.33-.33.33-.67a.32.32,0,0,0-.33.33,8.62,8.62,0,0,0-1.67,3c-.67,2.34-4,10.36-4.68,12.7A99.88,99.88,0,0,0,514.63,464c-.53,4.94-.8,7.42-1.34,12.36a93.58,93.58,0,0,0-.33,13.7c0,.67-.33,1.34-.33,2.34v1.67a2.62,2.62,0,0,0,.33-1l1,4.68a1.19,1.19,0,0,0,.33.67,12.09,12.09,0,0,0-.33-2.34c-.67-3.2-.33-7.68-.33-11.69l1-11.69c.33-3.67.8-7.61,1.34-11,1.38-8.82,5.47-18.32,8.35-27.4Zm-6,62.82c-.67-4.34-1-9-1.34-13.7v.67a29.38,29.38,0,0,0,.33,9.36c.13,1.34.2,2,.33,3.34a1.16,1.16,0,0,0,.67.33c0,.33-.33.67-.33,1a1.23,1.23,0,0,0,.33-1Zm4,2a116,116,0,0,1-1.67-21.05v2.34c0,1-.33,1.67-.33,2.67a92,92,0,0,0,.33,9.36l1,5.35c0,.33,0,.67.67,1.34Zm1.34-3.34a58.78,58.78,0,0,1-.67-18.71c.34-3.33.9-7.19,1.34-10.36a120,120,0,0,1,2.34-12.36c.67-2.67,1.34-5.35,2.34-8.35a72.36,72.36,0,0,1,3.34-7.35l.33-1.34c-.67.33-.33.67-.33,1.34-.33,0-3.68,6-3.68,6.35a8,8,0,0,0-.67,2.67c-1.34,3.67-2,7.35-3,11l-1,4.68c-.67,4.68-1.34,9.36-1.67,14a65.8,65.8,0,0,0,0,14,21,21,0,0,0,1,6.35,1.23,1.23,0,0,0,.33,1v-3Zm22.39-32.08v-.33l-2.34,1c-.33-.33-.33-.67-.67,0-.33,0-.33.33-.67.33,0,.67-.33.67-.67.67a18.19,18.19,0,0,1-3,2.34c-.33.33-.67.33-.67,1h.67l7.35-5Zm15,42.1c0-1-.33-2-.33-3,0-4.34,0-8.69-.33-13V487.4h-.33v8.69a50,50,0,0,1,.33,7v3c.33,0,.33.33.33.67a1.23,1.23,0,0,0,.33-1Zm0-40.76a7.43,7.43,0,0,0-.33,2.67c0,4.68-.33,9.69-.33,14.37v1.67a24,24,0,0,0,.33-4.68,22.35,22.35,0,0,1,.33-4.68v-4.68a11.19,11.19,0,0,0,0-4.68Z" fill="#796261"/>
    <path d="M625.22,453.33l-1,9-1,6.68a47.3,47.3,0,0,1-1.34,7.35v1a3.18,3.18,0,0,0-.67,2.34c-.33.67-.33,1-.67,1.34-1,1-.67,2-.67,3a1.75,1.75,0,0,1-.33,2,6.2,6.2,0,0,0-1,3.67v.33c-.67,1-.6,2.52-1,3.34a26.23,26.23,0,0,0-1.34,3,1,1,0,0,0-.33.67,37.34,37.34,0,0,1-6.68,10.36,28.37,28.37,0,0,1-7.68,6.35,9.22,9.22,0,0,1-4.34,1c-7.35.67-12.7-2.67-16.71-9a30.94,30.94,0,0,1-4-9.69,71.23,71.23,0,0,1-1.67-14.7c-.06-1.94-.33-4.34-.33-6.35,0-6.35,0-12.36,1-18.38l2-11.36a113,113,0,0,1,3.68-13.37,38.19,38.19,0,0,1,10.36-15.37,12,12,0,0,1,3.34-2.34,1.52,1.52,0,0,1,1,1c.33-.33,1-.33,1.34-.67a2,2,0,0,1,2.67-.33h.67a4.79,4.79,0,0,1,3,.33h2a14,14,0,0,1,7.35,1.67,20.55,20.55,0,0,1,10,11.69,57.05,57.05,0,0,1,2,9.69,58.41,58.41,0,0,1,.33,15.7Zm-47.11,17a124,124,0,0,1,1-13,109.62,109.62,0,0,1,4.68-21.72,14.35,14.35,0,0,0,.33-1.67c-.67.33-.67,1-1,1.34l-2,6.35c-1,4.34-2,9-2.67,13.7a138.88,138.88,0,0,0-1.34,14.7,96.6,96.6,0,0,0,.33,11.36v5.68a11.49,11.49,0,0,1,.33,3.34c0,.33.33.67.33,1v-2.34c.33,1,.33,2,.67,2.67.13.94.2,1.4.33,2.34.33.67.33,1.67.67,2.34a2,2,0,0,0,.34-1.34,2.55,2.55,0,0,1-.33-1.34c-.67-4-1-7.68-1.34-11.69S578.11,474.38,578.11,470.37Zm5.68,24.39a4.25,4.25,0,0,0-.33-2,133.53,133.53,0,0,1-1.67-23.05V468c-.13,3.47-.2,5.21-.33,8.69,0,3,.16,6.21.33,9,.16,2.52,1,5.35,1.34,8,0,.67.33,1,.67,1Zm3.68-.67a77.56,77.56,0,0,1-2-17.71c0-4.34-.33-9,0-13.37v-1a4.29,4.29,0,0,0-.33,2c0,1.34-.33,2.67-.33,4.34V475c0,3.34.51,6.84.67,10a27.67,27.67,0,0,0,1.67,8.35,2.57,2.57,0,0,0,.33,1.34v-.65Zm1.67-.33a85,85,0,0,1-1.34-9,101.83,101.83,0,0,1,.67-29.73c.71-4.62,1.67-9.36,2.67-13.7.33-.67.67-1,0-1.34a2,2,0,0,0-.33,1.34,104.47,104.47,0,0,0-3,13.7c-.64,4.32-1,8.38-1.34,12.7a87.13,87.13,0,0,0,.33,15.7,39.68,39.68,0,0,0,1,6.68c.33,1.34.33,3,1.34,4.34v-.67Zm22.72-52.12a61.25,61.25,0,0,0-1.67-7.68,23.85,23.85,0,0,0-5-9.69c-.33-.67-1-1-1.67-1.67a2.14,2.14,0,0,0-2,0,.72.72,0,0,1-.67.67,31.28,31.28,0,0,0-4,6c-2.67,4.34-4,9-5.35,13.7a103.73,103.73,0,0,0-2.67,14.7l-1,9a31.8,31.8,0,0,0,0,3.67c.4,2.49.18,5.83.33,8.69a79.17,79.17,0,0,0,1,11,33.12,33.12,0,0,0,3,8.69,15,15,0,0,0,5.68,5.68c1,1,1.34,1,2.34-.33a51.3,51.3,0,0,0,6.68-14.37,112.32,112.32,0,0,0,3.67-18.71c.59-4.95,1.2-10.18,1.67-14.7a64.35,64.35,0,0,0-.33-14.7Zm4,2a19.3,19.3,0,0,0-1.67-6c.33.67,1.34,13.7,1.34,14.37a22.68,22.68,0,0,0,.33-8.35Zm3.34-.67a12.33,12.33,0,0,0-1-5.68A33.17,33.17,0,0,0,619.21,443Zm2.34-8.69a81.3,81.3,0,0,0,1,9A19.9,19.9,0,0,0,621.55,434.28Zm1.34-.67a2.05,2.05,0,0,0,.33,1.34c.33,3.68.14,9,1,11a5.16,5.16,0,0,1,.33,1.34c.67-4.68-.33-9.36-1.67-13.7Z" fill="#796261"/>
    <path d="M648.27,431v1l1.67-2.67c-1,2.34-1.67,4.68-2.67,7a1.73,1.73,0,0,1-.67,1.34l-1,1c-.33,1.67-1.7,2.42-3,3a55.05,55.05,0,0,1-5.35,1.67,5.39,5.39,0,0,1-4-.33,1.23,1.23,0,0,0-1-.33,3,3,0,0,1-2-2c0-.67.72-2.46,1.34-2.67a5.58,5.58,0,0,0,3-3,71.26,71.26,0,0,0,4.34-13.7c1.22-5.28,2.34-11,3.67-16.37v-2.67l1-2.67c0-.33,1-1,1.34-1a7.17,7.17,0,0,1,1,1.67v1.67a1.19,1.19,0,0,0,.33.67.32.32,0,0,1,.33.33c.33-.67.33-1.34.67-1.67,0-.67-.33-1.34,0-2,0-.33.33-1,.67-1s.67.33,1.34.67v.67c.67-.33,1-1,1.67-1,.67-.33,1.34.33,1.67.33a10.88,10.88,0,0,1,2,1,9.35,9.35,0,0,1,.33,3,111.2,111.2,0,0,1-3.68,18.38c-1.2,3.88-1.8,5.81-3,9.69Zm-2.34-27.4c-.33.33-.67.67-.67,1-.33,5.35-2,10.69-3.34,15.7l-2,7.68a35.87,35.87,0,0,0-1.67,5.68c1.34-.67,1.34-2,2-3.34,1-3,1.67-6,2.67-9,1.2-5.35,1.8-8,3-13.37v-4.34Zm3,4h.67c0-1.34.33-2.67.33-3.68a.32.32,0,0,0-.33-.33c-.33,1.34-.33,2.67-.67,4Zm7.35-6.35a17,17,0,0,1-.33,3c-.93,4.86-2,11-3.34,16.37l-.67,1c.67-3.68,1.57-7.52,2.34-10.69.55-2.27.51-4.92,1-7A6.82,6.82,0,0,1,656.29,401.21ZM652,410.57a12.79,12.79,0,0,0,1.34-7.35A55.69,55.69,0,0,1,652,410.57Z" fill="#796261"/>
    <path d="M700.05,510.8h.33v1.67a8.25,8.25,0,0,0,0,4v1c-1.34-.67-2.26-1.42-2.34-2.67-.16-2.52-.67-5-.67-7.68l-1-10.69c0-5-.15-10.22-.33-15-.16-4.19-.8-9.25-.33-13a29.91,29.91,0,0,0,0-3.67V455c.33-7.35.89-15.22,1.67-22.72a108.3,108.3,0,0,1,2-13,12.28,12.28,0,0,1,1.67-3.68,3.34,3.34,0,0,1,1.67-1.34,1.65,1.65,0,0,1,.33,2.34l-.67,2.67a2.16,2.16,0,0,1-.67,1.67c.33-.33.33-.67,0-1.34v1.34c0,.33.33.67.33,1a75.6,75.6,0,0,0-1.67,8.35c-.25,2-.51,4.49-.67,6.68-.09,1.24-.33,2.67-.33,3.68-.33-.33-.33-.67-.33-1.34,0,1-.33,1.67,0,2.34a1.23,1.23,0,0,0-.33,1A126.61,126.61,0,0,0,698,456c.16,4.52.33,9.69.33,14.37a4.25,4.25,0,0,1-.33,2v1.34c.33,3.67.67,15.37.67,19.38a2.52,2.52,0,0,1,.33-1.67c.33,2.34-.33,4.68,0,7.35,0-.67,0-1,.33-1a36.88,36.88,0,0,1-.33,5.68l.67-1.34a25.58,25.58,0,0,1-.33,5l.67-1v2.67a6.59,6.59,0,0,1-.33,2.34l.33-.33Zm-1.67-62.15a.32.32,0,0,1,.33-.33v6.35h-.33v-6Zm45.44,58.14a1.23,1.23,0,0,0,.33,1,3,3,0,0,1-1.67.33,1.19,1.19,0,0,1-.33.67,2.82,2.82,0,0,1-.67,2.34l-.33.67a2.93,2.93,0,0,1-2,2.34,3,3,0,0,0-1.67.33,2,2,0,0,1-1.34.33,6.69,6.69,0,0,1-3.67-1,49.8,49.8,0,0,1-7.69-6.68,48.78,48.78,0,0,1-3.67-4.34l-1.34-1.34a86.84,86.84,0,0,1-8-11.36,7.22,7.22,0,0,1-1.34-2l-.67-.67a1.23,1.23,0,0,0-.33,1c.33,3.67.39,7.33.67,10.69.15,1.86.51,4.49.67,6.68.13,1.86.33,3.68.33,5.68v2.34c-.67-.33-.67-.67-.67-1.34-.33-2.67-.51-5.5-.67-8.35-.1-1.89-.25-4.44-.33-6.35-.16-3.52-.33-7.35-.67-11a4.25,4.25,0,0,0-.33-2c-.33,0-.33.33-.33.67,0,3.67.33,7.68.33,11.36l1,11c0,2,.33,4,.33,6v1.34c-.33,0-.67,0-.67-.33a22.2,22.2,0,0,0-.67-4.68l-1-16.37c0-2.67-.33-5.68-.33-8.35a7.43,7.43,0,0,0-.33-2.67.32.32,0,0,0-.33.33,1,1,0,0,0-.33.67v2.67c-.33.33,0,.67,0,1s.33,0,.33.33v2c0,3,.51,6.17.67,9,.1,1.89.33,4,.33,6s.33,3.67.33,5.35c0,1,.33,2,.33,3.34a1.23,1.23,0,0,1-.33-1h-.33v.67c.33,1.34-.33,2.34-1.67,3-.33-.33,0-1-.33-1.34v-1.34c-1-5.68-.81-11.92-1.34-17.71-.23-2.59-.33-5.68-.67-8.35v-5.35a1.05,1.05,0,0,0-.33-.67.32.32,0,0,0-.33.33v4.68a30.43,30.43,0,0,1,0,6.68,13.22,13.22,0,0,0,.33,4v-2.34c.33,3,.33,6,.67,9.36l.67,5.68c0,2,.33,4,.33,6v1h-.33c-.33,1.34-.67,1.34-2.34,1l-.33-.33c0-.67-.33-1.34-.33-2l-1-17.71c-.33-3.68-.67-7.35-.67-11,0-4.34,0-8.7-.33-13-.35-4.66,0-9.36,0-14.37,0-5.35.35-11,.67-16.37.15-2.51,0-5.38.33-8.35a82.49,82.49,0,0,1,2-12,6.66,6.66,0,0,1,1.34-2.67,4.84,4.84,0,0,0,.67-2c0-.66.33-1.67.33-2,.67-1.34,1-1.67,2.34-1.34.33.33.67.67.67,1,.33,0,.67,0,.67-.33a.29.29,0,0,0,.33-.33c1.34.33,2,.67,2.34,1.67.33,0,.67-.33,1-.33s.33.67.33,1a14.35,14.35,0,0,1-.33,1.67,81.82,81.82,0,0,0-2.34,12,93.63,93.63,0,0,1-1.34,10,42.72,42.72,0,0,1-.33,5c-.82,6.75-.33,14.7-.33,21.72V469c.33-.33.67-.67.67-1v-1.34c0-4.68.17-9.51.33-14,.25-7.08.77-15.11,1.67-22.39.37-3,1-5.68,1.67-8.69.33-.67.33-1.34.67-2s.33-1,.67-1.34c.33,0,0,.33,0,.33v.67c-.67,2.67-1.25,5.51-1.67,8-.57,3.36-1,7.39-1.34,11-.9,8.94-1,18-1,27.06v1a.72.72,0,0,0,.67-.67,138.79,138.79,0,0,0,11.69-23.39c1.67-5,3.3-10.76,4.68-16,.95-3.65,1.95-7.76,2.67-11.69a22.61,22.61,0,0,1,1.34-4.68l1.67-2a1,1,0,0,1,1.67.33,5,5,0,0,1,.33,2.34c0-.33.33-.67.33-1,.33-.33.33-1,.67-1.67s1-.67,1.67,0a1.23,1.23,0,0,0,.33,1,.32.32,0,0,1,.33-.33.29.29,0,0,0,.33-.33c.67.33,1,.33,1.34.67a1.54,1.54,0,0,0,1.67,1l.67,1a5.76,5.76,0,0,1,.33,3.34c-1,3.34-1.61,6.44-2.34,9.69-1.18,5.25-2.67,10.69-4.34,16-.67,2-1.34,3.68-2,6,.67,0,.67-.67.67-1.34a75.71,75.71,0,0,0,4.34-13c1.18-4.59,2.34-9.36,3.34-14l1-5.35a1.56,1.56,0,0,1,.33,2l-1,6a195.85,195.85,0,0,1-6.35,23c-1.67,3.67-3,7.35-4.68,10.69-2,4-4,8-6.35,12l-5,8a2.09,2.09,0,0,0-.33,2.34,88.55,88.55,0,0,0,6.35,10,107.6,107.6,0,0,0,10,12.36l4.68,4a4.12,4.12,0,0,0,2.67,1.34l.67.67c0,.33.33.67.67,1,0,.33-.67.67-.33,1Zm-37.76-81.86,1-5a.32.32,0,0,0-.33-.33l-.67,1v1.34c-.33.67-.33,1.67-.67,2.34-.67,4.34-1.23,8.82-1.67,13a140,140,0,0,0-1,14.37c0,6.68-.17,13.19-.33,19.38,0,1.63.33,3.34.33,5a.29.29,0,0,0,.33.33c.33-.33,0-.67,0-1.34v-4c0-5,.17-10.18.33-14.7.26-7.41.36-15.39,1.34-23a73.58,73.58,0,0,1,1.34-8.35Zm1.67,13.37c.33-3.34.86-6.48,1.34-9.36s1-5.68,1.67-8.35c0-.33.33-1-.33-1.34l-.33.33c0,.67-.33,1.34-.33,2-.67,3.34-1.2,6.86-1.67,10a139.37,139.37,0,0,0-1.67,14.7c-.14,3.86,0,8-.33,11.69v11.36a3,3,0,0,0,.33,1.67c0-.33.33-.33.33-.67V469a284.09,284.09,0,0,1,1-30.74Zm21,68.16a4.87,4.87,0,0,0-1.34-2,14.52,14.52,0,0,1-2-2l-2.34-2.34a113.29,113.29,0,0,1-11.36-16.71l-1-1.67a.32.32,0,0,1-.33-.33,1.48,1.48,0,0,0,.33,1.67,15.33,15.33,0,0,0,1.67,3.34c0,.33.33.67.33,1v.33c.33,0,.33.33.67.33-.33.33.33.67.33,1h.33c-.33.33,0,.67.33,1h.33c-.33.33,0,.67.33,1a.29.29,0,0,1,.33-.33c-.33.67,0,1,.33,1h.33c-.33.67,0,1,.33,1.34h-.33a3.34,3.34,0,0,1,1.34,1.67l1,1c0,.33.33.33.33.67.67.67,1.32,1.83,2,2.67a6.53,6.53,0,0,0,2.34,2.34,2.84,2.84,0,0,0,1,1.67l.33-.33,4,3.67q0,.33.33,0Zm3.34-2.34-.33-.33a116.86,116.86,0,0,1-10-11.69c-2.29-3-4.34-6.35-6.35-9.36,0-.67-.33-1.34-1-1.34v.67a4.55,4.55,0,0,1,1,1.34,119,119,0,0,0,13.7,18.38l2.34,2.34a1.16,1.16,0,0,0,.67.33v-.33Zm1.34-3.68-1-1a117.31,117.31,0,0,1-10-12.7l-4.68-7.68c-.33-.33-.33-.67-1-1v.67l1,1.67a92.6,92.6,0,0,0,10.36,15l5,5s.33.33.33,0Zm2-.33a50.55,50.55,0,0,1-3.68-4.34c-1-1.31-2.72-3-4-4.68a49.37,49.37,0,0,1-3.34-4.68l-3.34-5c-1.2-2-1.8-3-3-5h-.33c.33.33,0,.67.33.67a2.51,2.51,0,0,0,.67,1.67,95.35,95.35,0,0,0,11.36,16.37,65,65,0,0,0,4.68,5c.33,0,.33.33.67,0Zm-13-51.12c.33-.33.67-.67.67-1,1.2-2.94,1.8-4.41,3-7.35,2-4.68,3-9.75,4-14.7a81.14,81.14,0,0,0,1.67-8.35l-.33.33-1,3v-.33a.32.32,0,0,1-.33.33c0,.33-.33,1,0,1.34v1a.32.32,0,0,0-.33-.33c-.33.67-.67,1.34-.33,2-.67.33-.33,1-.33,1.34a.63.63,0,0,0,0,1,2.55,2.55,0,0,0-.33,1.34,175.91,175.91,0,0,1-6,18.71,14.35,14.35,0,0,0-.33,1.67Zm9.69-32.08a4.71,4.71,0,0,0,.33-3,.32.32,0,0,0,.33-.33c.33-.33.33-1,.67-1.34a1.75,1.75,0,0,0,.67-1.34,1,1,0,0,0-1.34,0,9.35,9.35,0,0,0-.33,3,4.71,4.71,0,0,0-.33,3Zm1,10.69c0,.33-.33.67-.33,1v1a2.55,2.55,0,0,0-.33,1.34c.67,0,.33-.67.67-1.34a101.19,101.19,0,0,0,2.67-10.69v-1.34a3,3,0,0,0-.33,1.67,78.94,78.94,0,0,0-2.34,8.35Zm2,6V435a1.23,1.23,0,0,0,.33-1l1-3.34a78.4,78.4,0,0,0,3.34-12.7v-1.67a10.46,10.46,0,0,0-.67,2.67c-1.6,5.88-2.41,8.82-4,14.7Z" fill="#796261"/>
    <path d="M798,511.8v2.67c-.33,0-.33-.33-.33-.67-.33-1.34-.44-3.08-.67-4.68-.5-3.46-.67-7-1.34-10.36a46,46,0,0,0-.33-4.68,48,48,0,0,0-.67-5.35c-.29-1.31-.47-2.77-.67-4-.67-4.23-1-9.36-1.67-14s-.8-6.82-1.34-11.36a4,4,0,0,0-.67-2.67c-.33.67,0,1.34,0,2l1,10.69c.67,3.67,1,7.35,1.67,11l1,8.35,1,9.36c.33,3.34.78,6.76,1.34,10,.39,2.26.33,4.68.67,7a2.62,2.62,0,0,1-.33,1c-.67-.33-.33-1-.67-1.67a5.56,5.56,0,0,0-.67-1.67c0,2.34-.67,3.68-2,4.68-.33,0-.33-.33-.33-.67a1.23,1.23,0,0,1-.33-1c0-.33-.33-.67-.33-1s-.33-.67-.33-1c.13,1.6.2,2.41.33,4l-1,1.34a1.23,1.23,0,0,1-1,.33.88.88,0,0,1-1-1c-.67-3.68-1-7.35-1.34-11l-2-15.7-1-6a5,5,0,0,0-.33-2.34,1.19,1.19,0,0,0-.67.33v2l2,14c.33,4,.73,8.05,1.34,11.69.21,1.25.19,2.51.33,3.67a35.74,35.74,0,0,1,0,4c-.67,0-1,0-1.34-.33l-1-1a2.57,2.57,0,0,0-.33-1.34l-2-18.71c-.67-3.68-1-7.35-1.34-11.36a2.52,2.52,0,0,1-.33-1.67h-1.34c-3-.33-6.17.18-9,.33a48.21,48.21,0,0,0-6,.67c-1,0-1.34.33-1.67,1.34l-1,6.35-1,5.35a29.24,29.24,0,0,1-.33,6c.33.67,0,1.67,0,2.67v1a1.16,1.16,0,0,0-.33.67,1.23,1.23,0,0,0-1,.33,2.57,2.57,0,0,1-.33,1.34,1,1,0,0,1-.33-.67c-.33-.33-.33-1-.67-1.34-.33.67-.67,1-.67,1.67-.33,1-1,1.34-2,2l-.67-1c-.33.67-.33,1.34-1,1.67a.66.66,0,0,1-.67.67,2.05,2.05,0,0,1-1.34-.33c-.33,0-.33-.33-.33-.67-.33-.33-.33-.67-.33-1.34v-1.67c-.33,0-.33.67-.33.67a7.53,7.53,0,0,1-1,2.67,2.66,2.66,0,0,1-2.34-3c0-2.34.24-4.78.33-7,.16-3.85,1-9.69,1.67-14a5.76,5.76,0,0,1,.33-2.34,3,3,0,0,0-.33-1.67,3,3,0,0,1,.33-3.34,9.48,9.48,0,0,0,1.67-3.67c1.67-8.69,4-17.43,6.35-25.73,2.28-8,4.68-16,7.35-23.72,1.2-3.88,1.8-5.81,3-9.69a9.56,9.56,0,0,1,2.67-4.68l1-1c1.34-1,2-1,3.34,0H776a2,2,0,0,1,2.34,0c.33.33.67.67,1.34.33.33,0,.67.33,1,.33l2.67,1.67.33.33a4.69,4.69,0,0,0,1,1.34,9.35,9.35,0,0,1,.33,3c.33.67.33,1.67.67,2.67,0,.67,0,1,.67,1.34,0,.33.33.67.33,1,.33,1,.33,2,.67,3v1.34c-.33.33-.33.67-.33,1.67l.33-.67q1,1.5,1,5H788v.33a1.23,1.23,0,0,0-.33,1l1,.33c.67,2,.67,4.34,1,6.35.67,4,1.19,7.82,1.67,11.36s1,7.35,1.34,11c.94,8.15,1.4,12.23,2.34,20.38,0,.67.33,1.34.33,2,0,2,.33,4,.33,6,.67,4.34,1,9.09,1.67,13a30.67,30.67,0,0,1,.67,4.34Zm-44.44-24.39a1.16,1.16,0,0,0-.67-.33l-.33.33c0,.67-.33,1-.33,1.67-.33,1.67-.36,3.36-.67,5.35-.36,2.31-.33,6.68-1,9a20.75,20.75,0,0,0,.33,4.34.32.32,0,0,1,.33-.33c0-1.34.33-2.34.33-3.68,0-1,.33-2,.33-3,.33-3.67,1-8.69,1.67-12.36v-1Zm8.69-36.75a1,1,0,0,0,.33-.67,14,14,0,0,1,.67-3.68c1.67-5.68,3.67-11.36,5.35-17l1.67-4.68c0-.67,2-5.35,2-5.68s0-.67-.67-.67a11.71,11.71,0,0,1-1.34,2c0,.33-.33.33,0,1-.33,0-.67.33-.33.67a21.23,21.23,0,0,0-2,5.35c-.33.33,0,.67,0,1-.33,0-.67.33-.33,1-.53,1.6-.8,2.41-1.34,4-.33,0-.33.67-.33,1a4.84,4.84,0,0,0-.67,2,1.23,1.23,0,0,0-.33,1,1.23,1.23,0,0,0-.33,1c-.22.45-.22.78,0,1l-.33.67c-.67-.33-.33.33-.33.67-.33,0-.33.67-.33,1a4.84,4.84,0,0,0-.67,2,1.23,1.23,0,0,0-.33,1,2,2,0,0,0-.33,1.34,1.23,1.23,0,0,0-.33,1c-.33.67-1.34,3.68-1,4.34-.67.33-.67.67-.33,1.34-.67.67-1,1.34-.67,2-.53,2-.8,3-1.34,5a2,2,0,0,0-.33,1.34c-.33.33-.67.67,0,1,0,.67-1,.67-.67,1.34,0,.33.33.67-.33.67v.67c.33.67-.33.67-.33,1s.33.67,0,1c-.67.33,0,.67-.33,1v.67a1.23,1.23,0,0,0-.33,1l-2,9c0,.33-.33.67,0,1.34a1.19,1.19,0,0,0,.67-.33c0-.33.33-.67.33-1a275.13,275.13,0,0,1,7-27.73Zm.33,35.42c-1,2.34-2.67,15.7-2.34,18.38.33-2,.33-4,.67-7.35l1-5.35c0-2,.67-3.67.67-5.68Zm11.36-49.45c.33-.67.33-1.34.67-1.67v-1h-.33c-.33.67-.33,1-.67,1.34-2.81,9.62-4.21,14.43-7,24.06-1.74,6.95-2.61,10.42-4.34,17.37v1.34a2.54,2.54,0,0,0,.67-1.34q4.92-20.21,11-40.09Zm-.67-11-1,1.67c.33.33,0,.67-.33,1a2.22,2.22,0,0,1-.33,2l-7,23.72c-1.67,5.35-1.35,7.66.33,1,2.29-9.08,5-18.17,8-27.06.33-.33.33-1,.67-1.34a1.23,1.23,0,0,0-.33-1Zm-8.35,51.12c.67-3.68,1.67-7,2.34-10.69,2-7.35,4-14.37,6.35-21.72.33-1.67,1-3.34,1.34-5a1.5,1.5,0,0,0,0-1.67.32.32,0,0,1-.33.33c0,.67-.33,1-.33,1.67-2.67,7.69-4.68,15.7-7,23.72-1.2,5.08-1.8,7.62-3,12.7,0,.67-.33,1-.33,1.67,0,.33.33.33.67.33a2.05,2.05,0,0,1,.33-1.34Zm15.37.33c-1-10.06-2.6-20.06-4-30.07a28.89,28.89,0,0,0-.67-5.35l-.33-.33-.67,1.67c-2.41,8.55-3.61,12.83-6,21.38-1.2,4.94-1.8,7.42-3,12.36v1.34c1.67,0,3.48-.22,4.68-.33,1.53-.15,3.51-.19,5-.33s3.34.33,5-.33Zm3.67-.33c-.33-1-.33-2-.67-3l-1-8.69-.67-1v.33c.33,1.67.52,3.14.67,4.34a26,26,0,0,0,.33,3.67c-.33.33-.67.67-.33,1.34a9.41,9.41,0,0,0,.33,3V477l.33-1v1.34c.22.22.55.22,1,0v-.67Zm2-13.37c-.33,1.34,1,14,1.34,15h.67l-2-15Zm3.34,29.74a47.59,47.59,0,0,0-1-9.69v-.67a18.88,18.88,0,0,0,.33,5.35C788.73,489.58,788.91,491.42,789.25,493.09Zm-.33-33.75a1,1,0,0,0-.33-.67,1,1,0,0,0,0-1.34v1.34l1,7.35c0,1.67.33,3.68.33,5.68l1,6.68,1,9.36c.33,3,1,6.35,1.34,9.69l.67,6.68c.33,1.67.33,3.34.67,5,0,.33.33.33.33.67v1.34a1,1,0,0,0,0-1.34v-2.67l-1-6.35c-.33-4-.85-8.49-1.34-12.36s-.91-8.47-1.34-12.7c-.53-5.23-1.34-11-2.34-16.37Z" fill="#796261"/>
    <path d="M827,462.35c0,.67-.33,1.34,0,1.67h1l4-1a52.58,52.58,0,0,1,7-1.34h1.67a2.62,2.62,0,0,1,1,.33c-.33.67-1,.67-1.67,1.34.67.33,1,0,1.67,0h1c.67,0,1,.33.67,1V465h1.34c.33.67.67,1.34.33,2l.67.67a7.43,7.43,0,0,1-1.67,1.34c.67.33,1,0,1.34,0,0,.33-.33.33-.67.67-2.34,1-4.81,2.42-6.68,3.34a53.85,53.85,0,0,1-6,2.34l-4.68,2a1.83,1.83,0,0,0-1,1.67,50,50,0,0,0-.33,7v14a7.43,7.43,0,0,0,.33,2.67v2.67c0,1.34-.33,3-.33,4.34,0,.33,0,1-.67,1,0-.67-.33-1.34-.33-2a4.29,4.29,0,0,0-.33,2c0,.66,0,1.34-.67,1.67-.67-1-.33-2.34-.67-3.34-.67,2.67-1,3.34-2.67,5-.67-1,0-1.67-.67-2.67a2,2,0,0,0-.33,1.34v1.34a.29.29,0,0,1-.33-.33c-.33.67-.67,1-.67,1.67a4.29,4.29,0,0,0-2-.33,4.29,4.29,0,0,1-.33-2V493.43c.33-4.68.33-9,.33-13.37v-2.34c0-.33-.33-.33-.67-.33a.32.32,0,0,0-.33.33v1c-.33,7-.33,14-.33,21.38,0,1,.33,1.67.33,2.34v5.68a15.6,15.6,0,0,1-.67,5.68v.67c-1.67-.33-2.34-1-2.34-2.67V486.07c.33-4.68.33-8.69.33-12.7s.33-7.69.33-11.69V448c0-3.68.33-7.68.33-11.36V435c-.33,0-.67-.33-1-.33v-.33l1-1c-.33-.33-.67,0-1-.33H812c-1,0-1.34,0-2-1-.67-.33-1.58-.31-2-1a3.66,3.66,0,0,1-.33-2c-.33-.67-1-1-1-1.67a4.61,4.61,0,0,1,.67-2,11.55,11.55,0,0,1,3.68-3c1.36-.77,3.34-1.67,5-2.67a165.15,165.15,0,0,1,21.72-7.35,14.35,14.35,0,0,0,1.67-.33h2.34l4.34,1c1,.33,2,.67,2.34,1.67l.33.33a9.38,9.38,0,0,1,3.34,4.68.32.32,0,0,0,.33.33c-.33.33-.67.67-.67,1a1.16,1.16,0,0,0,.67.33,5.84,5.84,0,0,1-1.67.67c-1.67.33-2.67,1-4,1.34a2,2,0,0,1-1.34.33,111.91,111.91,0,0,0-14,4.34l-2.67,1c-.67,0-1,.67-1,1.34,0,2-.26,3.75-.33,5.68-.16,4.19-.33,8.35-.33,12.7v13.7Zm-12.36-38.42c-1.67.67-3,1-3.67,2.34h.33c1.34,0,2-1,3-1.67.33,0,.33-.33.33-.67Zm6,31.41a26.1,26.1,0,0,0-.67,5v7.35a1,1,0,0,1,.67-.33v-.67c.33-4,0-7.68,0-11.36Zm10-37.76H830l-7.68,2.67a1.16,1.16,0,0,1-.67.33.42.42,0,0,0,0,.67h.67c2.67-1.34,5.35-2.34,8.35-3.68Zm-7.35,65.49c-.14-1.16.67-2.67.33-4-.67.33-.67.67-.67,1v7.35a16.47,16.47,0,0,0,.33,4v-4a41.61,41.61,0,0,0,0-4.34Zm1-18c0-2.34,0-13-.33-14.7-.33,4.34-.33,14-.33,15.37.44-.22.67-.44.67-.67Zm1.34,13.7a.33.33,0,0,0-.66,0,14.35,14.35,0,0,1-.33,1.67v21.71c.33-1,1-22.05,1-23.39ZM826,444a57.29,57.29,0,0,0-.33,7.35c0,2-.33,4.34-.33,6.68a45.07,45.07,0,0,0,0,6.68c.67,0,.67-.33.67-.67V444Zm0-6v4.68a20.8,20.8,0,0,0,.33-4.34v-.67a.29.29,0,0,0-.33.33Zm.67,38.76h1a23,23,0,0,1,4.34-1.67c.33-.33.67-.33,1-1-.33.33-.67,0-.67.33-1.67.67-3,1-4.34,1.67a1,1,0,0,0-.33.67A.63.63,0,0,0,826.68,476.73Zm7.35-2.67c.33-.33,1-.33,1.34-.67.67-.33,1-.33,1.34-.67,1-.33,2-1,3-1.34l1-.67h.67a7.17,7.17,0,0,0,1.67-1,4.06,4.06,0,0,0-1.67,1c-.33-.33-.67-.33-.67,0a26.47,26.47,0,0,0-5.35,2.34v.33c-.67,0-1.34,0-1.34.67Zm60.14-51.12.67.67a2.56,2.56,0,0,1-1.67.67,17.84,17.84,0,0,0-4,1c-.33,0-.67.33-1,.33-5,1-9.69,2.34-14.37,3.68l-2.67,1a1.75,1.75,0,0,0-.67,1.34,37.57,37.57,0,0,0-.33,5.35c-.16,3.52-.2,7.83-.33,11.69-.16,4.52-.33,15.7-.33,20.38a2.52,2.52,0,0,0,.33,1.67h1l4-1a52.58,52.58,0,0,1,7-1.34h1.34a1.23,1.23,0,0,1,1,.33c-.33.67-1,.67-1.34,1.34.67.33,1,0,1.34,0h1.34c.67,0,.67.33.67,1v.67h1a1.56,1.56,0,0,1,.33,2l1,.67c-.67.33-1,1-1.67,1.34.67.33,1,0,1.34,0l-1,.67c-2,1-4.34,2-6.68,3.34-1.67.67-3.67,1.67-5.68,2.34l-4.68,2a1.71,1.71,0,0,0-1.34,1.67v.33c0,4.68-.33,9.36-.33,14a6.43,6.43,0,0,0,.33,2.67,5.85,5.85,0,0,1,0,2.67c-.18,1.11,0,3-.33,4.34,0,.33,0,1-.33,1-.13-.8-.2-1.2-.33-2-.67.67-.33,1.34-.67,2,0,.67.33,1.34-.33,1.67-.67-1-.33-2.34-1-3.34-.33,2.67-.67,3.34-2.67,5-.33-1,0-1.67-.67-2.67a2,2,0,0,0-.33,1.34v1.34l-.33-.33c0,.67-.33,1-.67,1.67l-1.67-.33c-.67-.67-.33-1.34-.33-2-.67-3-1-1-1.34.67,0,.33,0,.67-.33.67-1.34-.33-2.34-1-2.34-2.67v-6.35c0-6.35.33-13,.33-19.38,0,2,0-2,.33-6V468.39c.33-4.34.33-15.7.33-20.38V436l-.67-.33v-.33l1-1c-.33-.33-.67,0-1,0h-1c-1,0-1.34-.33-2-1.34a2.43,2.43,0,0,1-2-.67,2.14,2.14,0,0,1,0-2c-.33-.33-1-.67-1-1.34s0-1.34.67-1.67a9.21,9.21,0,0,1,3.34-2.67c1.64-.9,3.67-1.67,5.35-2.67a159,159,0,0,1,21.38-6.68c.67,0,1.34-.33,2-.33h2.34l4,1a6.66,6.66,0,0,1,2.67,1.34.32.32,0,0,0,.33.33,7.47,7.47,0,0,1,3,4.34.32.32,0,0,1,.33.33l-.67.67Zm-37.09,3a5.78,5.78,0,0,0-3.67,2c.33,0,.33.33.67.33a13.54,13.54,0,0,0,3-1.67v-.67Zm16.37-5.68h-1a63.12,63.12,0,0,0-7.35,2.34,1.23,1.23,0,0,0-1,.33,1.05,1.05,0,0,0,.33.67c0-.33.33-.33.67-.33Zm-7.35,65.49a1.23,1.23,0,0,0-.33,1v4.68a16.47,16.47,0,0,0,.33-4v-1.67Zm.67-35.42c-.33,4.34-.67,20.72-.33,22.05a1,1,0,0,0,.33-.67c.33-2.34.33-19.71,0-21.38Zm1.34,35.08a.29.29,0,0,0-.33-.33l-.33.33v3c0,4-.33,8-.33,11.69,0,.67.33,1.34.33,2,.33-1,1-15.37.67-16.71Zm.67-40.76-.33-.33a50,50,0,0,1-.33,7v13.37a45.07,45.07,0,0,0,0,6.68c.33,0,.33-.33.33-.67v-2.34c.33-5.68,0-18,.33-23.72Zm.33-6h-.33c0-.33-.33,0-.33,0V439a16.47,16.47,0,0,0,.33,4c0-1.34.33-2.67.33-4Zm1,44.77a25.75,25.75,0,0,1,4.68-1.67c.33-.33.67-.33.67-1,0,.33-.33,0-.67.33-1.34.67-2.67,1-4.34,1.67a1,1,0,0,1-.33.67Zm8-3.34c.33-.33,1-.33,1.34-.67,1-.33,2-1,3-1.34l.67-.67a23.31,23.31,0,0,0-5,2.34v.33Z" fill="#796261"/>
    <path d="M945.29,504.12a1.23,1.23,0,0,0,.33,1c-1.67,2-4,3-6.35,4.68-4.34,2.67-15.7,6.68-22,6.68a34.27,34.27,0,0,1-6.35-.67,10.67,10.67,0,0,1-7.35-5.35,22.64,22.64,0,0,1-2.34-8,108.64,108.64,0,0,1-1.34-14c0-14.25.44-28.74.67-42.77,0-3.29.08-6.63.33-9.69.15-1.86.67-4,.67-6a19.21,19.21,0,0,1,.33-4.34v-1.34c.33-1,.33-2,.67-3l1-2.34a2.62,2.62,0,0,1,1.34-1.34.64.64,0,0,1,1,.33c-.33.67,0,1.34-.67,2a1.16,1.16,0,0,1,.33.67h.67l.67-1c.33-.33.33-1,.67-1.34.33-1,.92-1.31,1.67-1,.27.11.33,1.34,1,1.34l.67-1h.33c1,.33,1.67,0,2.67,0,8.21-2.57,19.61-5.57,27.73-1.67,1.34.33,2.13,1.68,2.67,2.34a3.79,3.79,0,0,1,1,3.34c0,.33.33.33.33.67a2.68,2.68,0,0,1-2,.67c-8.9.62-18.78,4-28.07,6.35l-.67,1a35.74,35.74,0,0,1-.33,4c-.39,3.2-.44,7.44-.67,11.36-.59,10.18-.37,20.94-.33,31.41v1.67c.67.33,1,0,1.34-.33,4-1.67,10-5,14.7-3.34a1.23,1.23,0,0,1,.33,1h1a1.73,1.73,0,0,1,1.34.67v1c.67.33,1.3.1,1.67,1,.27.64.33,1.34,0,1.67.33.67.67-.33,1.34,0-.33,1.34-1.67,1.67-2.34,3h.67l1.67-1a.29.29,0,0,1-.33.33,5.37,5.37,0,0,1-3,2.34c-6,2.34-12,5-17,7.35-1,.33-1.34,1-1,1.67a62.39,62.39,0,0,0,1,8.35,2,2,0,0,1,0,2.34v.67a2.62,2.62,0,0,0,1.34,1.34,5.78,5.78,0,0,1,1.67,1.34,2.56,2.56,0,0,0,1.67.67h2c.33,0,18.71-7,18.71-7a1.05,1.05,0,0,0,.67-.33,1.58,1.58,0,0,1,2,.33c.67,0,1,0,1.34-.33a8.56,8.56,0,0,1,1,2.67ZM903.52,446c0,1-.33,2-.33,3.34v5.35c0,6.35-.33,9.36-.33,12.36V484.4c.67-.67.33-1,.33-1.67v-7.68c.33-6.35.33-13,.33-22.72a9.41,9.41,0,0,1,.33-3V446Zm.33,51.79c0-1.67-.33-3.68-.33-5.68h-.33a10.75,10.75,0,0,0,.67,5.68Zm3.34-16V462.35a62.5,62.5,0,0,0,.33-7.68v-9q-.49,17.72-1,35.42c0,.33.33.67.33,1a.32.32,0,0,1,.33-.33Zm.67,16.37c0-1.34-.33-3-.33-4.68h-.33a13.91,13.91,0,0,0,.33,3.68A1.23,1.23,0,0,0,907.86,498.1Zm3-18v-1.67q.15-17.22.67-34.42v-2.34l1-10v-1.34a2.16,2.16,0,0,0-.67,1.67c-.33,3-.42,6.09-.67,9-.47,5.52-.51,14.86-.67,20.38s0,11.36-.33,17v1.34a.32.32,0,0,0,.33.33h.34Zm1,20.05c0-1-.33-2-.33-3a4.47,4.47,0,0,0-.67-2.67A15.59,15.59,0,0,0,911.87,500.11Zm.33-20.72a.32.32,0,0,0,.33-.33v-.67c0-5.35.33-10.69.33-16.37,0-4,.17-11.52.33-15.37a22.59,22.59,0,0,1,.33-4.34v-5c.33-2,.33-4,.67-6v-1.67a2.16,2.16,0,0,0-.67,1.67c-.33,3.34-.55,6.47-.67,9.69-.16,4.52-.67,9.36-.67,14.37,0,9.69-.33,16-.33,22.39v1.34a.32.32,0,0,0,.33.33Zm1.34,21.72a49,49,0,0,0-.67-7h-.33c-.33,0-.33.33-.33.67a42.52,42.52,0,0,0,1.34,6.35Z" fill="#796261"/>
  </g>
  <path d="M205.05,224.79c-23.23-15.69-41-37-40.77-66.72.53-16.42,7.2-31.75,13.58-46.19,6.36-14.09,13.76-27.46,20.64-41.12C206.4,54.85,214.12,35,204,19a60.26,60.26,0,0,0-9.09-10.59c-4.29-4.28,1.52-11,6.41-7.36,27.37,19.8,22.85,48.85,9.53,75.77C199.75,99.32,186.69,121,179.4,145c-5.74,18-1.08,37.48,10.15,52.41,5.62,7.66,13.1,14.09,20.8,20.74,4,3.53-.84,9.8-5.29,6.69h0Z" fill="#796261"/>
  <path d="M474.76,522.25c-5.16,48.68-51.18,79.41-93.43,95.26C318.23,641,249.6,645.86,183.25,637c-32.89-4.32-66.06-11-96.43-24.92C58,598.8,24,574.23,27.25,538.65a.62.62,0,0,1,1.23.1c-.94,22.12,15.1,40.46,32.6,52C97.59,614,141.94,621.33,184.49,625.3c63.92,5.39,130.27-.82,189.84-25.31,36.54-15.83,75.85-39.85,87.68-80,2.16-7.46,13.33-5.54,12.76,2.32h0Z" fill="#796261"/>
  <path d="M10.21,280.92l0,0a39.82,39.82,0,0,0,4.26,3.86c.65.51,1.3,1,2,1.5.39.3.81.59,1.24.87a63.74,63.74,0,0,0,5.58,3.41c.65.37,1.32.71,2,1.06,1.16.61,2.35,1.18,3.55,1.73.49.24,1,.47,1.52.69,1.48.67,3,1.3,4.51,1.91.57.24,1.14.45,1.71.67q2.84,1.1,5.73,2.07l2.31.77.22.06c.83.28,1.68.53,2.52.79l2.52.77c.84.26,1.68.49,2.5.71,10.82,3,21.11,5.08,28.06,6.48,56.42,10.13,113.59,11.33,170.68,9.62q42.78-1.46,85.57-6.48c28.54-3.37,57.33-7.53,85.49-17.81,14-5.32,28.26-11.65,40.22-21l0,0,20.75-36.18A34,34,0,0,0,476,216.72C458,194,422.16,184,395.18,178.43a.81.81,0,0,0-.59,1.48c12,7.82,24,15.31,35,23.53,8,6,15.49,12.14,21.62,19.63,2.84,3.53,5.56,8.08,5.46,12-3.17,12.36-33.32,21.28-45.72,25.3a809.37,809.37,0,0,1-161.52,31.41c-55.24,5.12-111.5,7.31-166.68,1.48-13.72-1.6-27.37-3.8-40.38-7.55C6.78,275.17,1.5,260,30.64,235.54c10.62-8.85,22.52-16.4,34.64-23.49a1.26,1.26,0,0,0-1.19-2.21c-19.9,9.93-50.33,24.36-59.61,45.7a25.73,25.73,0,0,0-1.54,9.54v0l7.25,15.82Z" fill="#796261"/>
  <path d="M3,265.1v0a25.52,25.52,0,0,1,1.54-9.54c9.28-21.34,39.71-35.77,59.61-45.7a1.26,1.26,0,0,1,1.19,2.21c-12.12,7.09-24,14.64-34.64,23.49C1.51,260,6.8,275.17,42.37,285.67c13,3.74,26.66,5.95,40.38,7.55,55.18,5.83,111.44,3.65,166.68-1.48A810.21,810.21,0,0,0,411,260.33c12.4-4,42.55-12.95,45.72-25.3.1-3.88-2.62-8.43-5.46-12-6.13-7.49-13.64-13.6-21.62-19.63-11-8.22-23-15.71-35-23.53a.81.81,0,0,1,.59-1.48C422.18,184,458,194,476,216.72a33.89,33.89,0,0,1,7.17,19.69l-20.75,36.18,0,0c-12,9.36-26.21,15.69-40.22,21-28.16,10.29-56.95,14.45-85.49,17.81s-57,5.52-85.57,6.48c-57.09,1.71-114.26.51-170.68-9.62C63.33,304.84,26,297.53,10.24,280.94c-.18,7.25-.32,14.54,0,21.48.67,60.48,12.16,121.75,38.49,176.49,8.18,16.32,17.66,32.2,29.76,46,1.24,1.32,7.92,8.47,9.75,9.72a45.32,45.32,0,0,0,3.53,3,.32.32,0,0,1,.08.47.35.35,0,0,1-.49.08C71.14,523.52,56.1,503,43,482.05,9.22,425.65-2.42,358.09.41,293c.75-8.93,1.58-19,2.52-27.85,0,0,0-.06,0-.1H3Z" fill="#796261"/>
  <path d="M493.67,278.43c-7.13,106.68-47.93,231.4-156,273.3-53.82,20.14-113,27.8-169.62,16.53-11.21-2.32-22.36-5.28-32.89-9.89a.46.46,0,0,1-.23-.57.46.46,0,0,1,.57-.24c10.52,4.34,21.7,7,32.89,9,44.83,7.62,91.28,2.76,134.48-10.74,32-9.62,62.43-25.38,85.72-49.57,54.35-55.92,70.75-137.27,73.37-212.79.16-6.42.18-13.64.44-20.81l20.77-36.2,1.4-.93c19.11-12.22,39.19-23.78,62.92-25.22,17.16-1,34.25,8.33,40.18,25.05,7.06,17,1.38,35.23-7.15,50.09-20.16,34.53-49.56,62.39-79.24,88.35a1.77,1.77,0,0,1-2.49-2.49c21.09-24.34,77-89.49,71.05-121.06-6.9-34.09-59.73-5.85-73.21,10.51a23,23,0,0,0-2.27,3c-.1,5-.36,9.76-.69,14.76Z" fill="#796261"/>
  <path d="M275.36,217.11C257,203.25,244.16,184,244.75,160c.55-13.45,5.35-26.17,10.1-38.3,4.57-11.47,10.34-23.5,15.37-34.73,8.06-18,13.13-37.67-2.55-52.87a4.19,4.19,0,0,1,5.88-5.95,48.66,48.66,0,0,1,9.15,10.25c8,12,6.93,27.7,2.85,40.83C279,99.41,268,117.71,261.18,137.64c-7.67,19.21-8.08,37.92,3.18,55.82,4.12,6.66,9.87,12.34,15.87,18.22,3.25,3.19-1.28,8.35-4.88,5.44h0Z" fill="#796261"/>
</svg>
