<svg xmlns="http://www.w3.org/2000/svg" viewBox="0 0 297.26 323.45"><defs><style>.cls-1{fill:#7a6261;}</style></defs><g id="Layer_2" data-name="Layer 2"><g id="Layer_1-2" data-name="Layer 1"><path class="cls-1" d="M103.71,113.16c-11.63-8-20.35-18.5-20.27-33.46.28-8.21,3.66-15.88,6.87-23.14s7-13.92,10.47-20.85c4.1-8.25,8-18.65,2.59-26.95A30.41,30.41,0,0,0,98.6,3.33,1.94,1.94,0,0,1,98.53.6a2,2,0,0,1,2.61-.18c13.54,10,11.14,24.29,4.5,37.69-3.45,6.94-7.19,13.74-10.45,20.71-3,6.78-6.27,13.68-6.75,21-.54,13.2,7.45,22.8,17.36,30.66a1.69,1.69,0,0,1-2.09,2.65Z"/><path class="cls-1" d="M239.06,264.26c-3.27,23.93-26,38.81-46.86,46.88-31.66,12-66.33,14.61-99.73,10.45-16.63-2-33.38-5.31-48.77-12.17-14.6-6.57-31.7-18.7-30.39-36.61a.19.19,0,0,1,.21-.18.21.21,0,0,1,.18.21c-.68,11.33,7.45,20.85,16.35,26.83,18.53,12.1,41.12,16,62.81,18.2,40.76,3.89,92.23-2.09,124.92-28.53A53.48,53.48,0,0,0,232.4,271a44.11,44.11,0,0,0,2.6-7.45,2.07,2.07,0,0,1,4.06.76Z"/><path class="cls-1" d="M199.84,90.14c13.1,3.67,30.51,9.29,39.16,20.51,6.44,8.91,2,18.38-6,24.3-25.15,18.59-75.3,21.47-106.34,23.42-28.8,1.18-57.72.89-86.24-3.85a132.9,132.9,0,0,1-21.15-5.26c-20-6.94-24.3-18.92-5.84-32.21A128.17,128.17,0,0,1,32,106.15a.41.41,0,0,1,.38.72C22.25,112.73-8.84,130.2,11,141.55c9.16,5,19.81,6.64,30.12,8.11a335.3,335.3,0,0,0,42.43,2.22c42.22-.44,84.94-4.8,125.37-17.23,6.27-2,12.78-4.35,18.22-7.81a16.13,16.13,0,0,0,5.71-5.57c3.47-7.38-9.57-16.07-14.84-19.78-5.88-4-12.14-7.41-18.37-10.87-.28-.13-.08-.57.19-.48Z"/><path class="cls-1" d="M45.76,272.46c-12.68-9.44-21.63-23-28.88-36.86C1.36,204.45-2.69,168.35,1.61,134.08a1.17,1.17,0,0,1,2.33.18c-.15,3.14-.31,6.27-.5,9.4l-.27,4.65c.08,4.56-.06,9.47,0,14C4.06,187,9,211.94,19.08,234.56c6.59,13.95,14.59,27.94,26.8,37.73.11.07,0,.26-.12.17Z"/><path class="cls-1" d="M252.65,188c11.19-12.42,22-25.44,30.39-39.86,4.58-8.37,10.65-19.83,3.66-28.12-8.85-9.19-33.2,4.44-38.35,13.59l.49-1.88c-1.47,56.59-21,124.41-78.31,147.22-27.2,10.31-57.18,14.3-85.86,8.71A84.26,84.26,0,0,1,68,282.75a.17.17,0,0,1-.09-.21.17.17,0,0,1,.21-.08A83.11,83.11,0,0,0,84.8,287c22.76,4,46.39,1.68,68.41-5,10.94-3.32,21.63-7.63,31-14.13,33.29-22.71,47.11-64,51.39-102.48,1.32-11.06,1.36-22.28,1.8-33.38l.2-2.85c1.26-2.17,3.62-4,5.21-5.36,12.32-9.51,36.73-24,50-9.17,7.12,9.08,4.65,19.83-.4,28.89-9.9,17.49-24.22,32-38.88,45.37a.64.64,0,0,1-.9-.9Z"/><path class="cls-1" d="M139.21,109.51c-9.3-7.09-15.64-16.67-15.39-28.82.27-6.79,2.71-13.21,5.12-19.34s5.2-11.77,7.8-17.62c3-7,5.89-15.34,2.12-22.39a24.63,24.63,0,0,0-3.53-4.69A1.93,1.93,0,0,1,138,13.9c10.38,8.46,8.5,21,3.68,32-4.17,9.63-9.18,19.13-11.91,29.21C126.29,87.71,132,98.66,141.46,107a1.69,1.69,0,0,1-2.25,2.51Z"/></g></g></svg>